<svg width="25" height="25" viewBox="0 0 25 25" fill="none" xmlns="http://www.w3.org/2000/svg">
<mask id="mask0_18_3772" style="mask-type:alpha" maskUnits="userSpaceOnUse" x="0" y="0" width="25" height="25">
<rect width="25" height="25" fill="#C4C4C4"/>
</mask>
<g mask="url(#mask0_18_3772)">
<path d="M3.8457 4.33905C3.8457 3.23448 4.74113 2.33905 5.8457 2.33905H8.57085C9.00265 2.33905 9.3527 2.68909 9.3527 3.12089V3.12089C9.3527 3.55269 9.70274 3.90273 10.1345 3.90273H14.8646C15.2964 3.90273 15.6464 3.55269 15.6464 3.12089V3.12089C15.6464 2.68909 15.9964 2.33905 16.4282 2.33905H19.1534C20.258 2.33905 21.1534 3.23448 21.1534 4.33905V22.2306C21.1534 23.3352 20.258 24.2306 19.1534 24.2306H5.8457C4.74113 24.2306 3.8457 23.3352 3.8457 22.2306V4.33905Z" fill="#2320D4"/>
<path d="M8.07715 2.88415C8.07715 1.92827 8.85204 1.15338 9.80792 1.15338H15.1925C16.1484 1.15338 16.9233 1.92827 16.9233 2.88415V2.88415C16.9233 3.84003 16.1484 4.61492 15.1925 4.61492H9.80792C8.85204 4.61492 8.07715 3.84003 8.07715 2.88415V2.88415Z" fill="#4CE1C6"/>
<path d="M7.27344 16.0211L8.06015 16.8029L9.63358 15.2393" stroke="white" stroke-width="1.5" stroke-linecap="round" stroke-linejoin="round"/>
<path d="M12.1055 16.0205H16.8257" stroke="white" stroke-width="1.5" stroke-linecap="round"/>
<path d="M7.27344 19.1482L8.06015 19.93L9.63358 18.3663" stroke="white" stroke-width="1.5" stroke-linecap="round" stroke-linejoin="round"/>
<path d="M12.1055 19.1487H16.8257" stroke="white" stroke-width="1.5" stroke-linecap="round"/>
<path fill-rule="evenodd" clip-rule="evenodd" d="M10.0716 10.995C10.0799 11.0033 10.0882 11.0114 10.0967 11.0195L11.5873 12.5008C11.979 12.8901 12.6141 12.8901 13.0059 12.5008L14.4803 11.0355C14.495 11.022 14.5094 11.0081 14.5237 10.994C15.1381 10.3833 15.1381 9.39325 14.5237 8.7826C13.9092 8.17195 12.913 8.17195 12.2985 8.7826C12.2981 8.78299 12.2978 8.78338 12.2974 8.78378L12.2966 8.78298L12.2963 8.78325C11.6818 8.17301 10.6859 8.17315 10.0716 8.78366C9.4571 9.39431 9.4571 10.3844 10.0716 10.995Z" fill="white"/>
</g>
</svg>
