<svg width="1440" height="822" preserveAspectRatio="none" viewBox="0 0 1440 822" fill="none" xmlns="http://www.w3.org/2000/svg">
<mask id="mask0_1_1375" style="mask-type:alpha" maskUnits="userSpaceOnUse" x="0" y="0" width="1440" height="822">
<rect width="1440" height="822" fill="#D9D9D9"/>
</mask>
<g mask="url(#mask0_1_1375)">
<circle cx="1351" cy="477" r="83" fill="url(#paint0_linear_1_1375)"/>
<g filter="url(#filter0_d_1_1375)">
<circle cx="1350.82" cy="475.924" r="53.3645" fill="white"/>
</g>
<mask id="mask1_1_1375" style="mask-type:alpha" maskUnits="userSpaceOnUse" x="1324" y="450" width="54" height="54">
<rect x="1324.23" y="450.226" width="53.6401" height="53.6401" fill="#C4C4C4"/>
</mask>
<g mask="url(#mask1_1_1375)">
<path d="M1350.84 464.725V455.434H1338.06V464.725C1338.06 469.079 1336.8 473.335 1334.45 476.957L1327.82 487.146C1325.44 490.809 1328 495.718 1332.29 495.718H1356.61C1360.91 495.718 1363.46 490.809 1361.08 487.146L1354.45 476.957C1352.1 473.335 1350.84 469.079 1350.84 464.725Z" fill="#E8EDF9"/>
<path d="M1350.71 457.588H1338.19C1336.21 457.588 1334.6 455.94 1334.6 453.907C1334.6 451.874 1336.21 450.226 1338.19 450.226H1350.71C1352.69 450.226 1354.3 451.874 1354.3 453.907C1354.3 455.94 1352.69 457.588 1350.71 457.588Z" fill="#D9E1F6"/>
<path d="M1354.39 476.747L1333.67 478.475L1331.55 481.731L1327.82 487.463C1325.44 491.126 1328 496.035 1332.29 496.035H1356.61C1360.91 496.035 1363.46 491.126 1361.08 487.463L1354.39 476.747Z" fill="#ED4C4C"/>
<path d="M1333.67 478.158C1335.49 481.781 1340.07 483.972 1354.39 476.747C1354.39 476.747 1349.74 477.122 1343.93 475.294C1336.81 473.052 1333.67 478.158 1333.67 478.158Z" fill="#E88080"/>
<path d="M1354.19 460.822C1354.19 459.367 1355.37 458.187 1356.83 458.187H1372.55C1374 458.187 1375.18 459.367 1375.18 460.822V460.822C1375.18 462.278 1374 463.457 1372.55 463.457H1370.81V497.743C1370.81 501.125 1368.07 503.866 1364.69 503.866V503.866C1361.31 503.866 1358.57 501.125 1358.57 497.743V463.457H1356.83C1355.37 463.457 1354.19 462.278 1354.19 460.822V460.822Z" fill="#E8EDF9"/>
<path d="M1358.57 481.026H1370.81V497.743C1370.81 501.125 1368.07 503.866 1364.69 503.866V503.866C1361.31 503.866 1358.57 501.125 1358.57 497.743V481.026Z" fill="#5AD3C0"/>
<path fill-rule="evenodd" clip-rule="evenodd" d="M1358.57 466.971H1365.5C1366.02 466.971 1366.44 467.391 1366.44 467.91V468.668C1366.44 469.186 1366.02 469.607 1365.5 469.607H1358.57V466.971ZM1358.56 473.12H1365.5C1366.02 473.12 1366.44 473.541 1366.44 474.059V474.817C1366.44 475.335 1366.02 475.756 1365.5 475.756H1358.56V473.12ZM1365.5 479.269H1358.56V481.905H1365.5C1366.02 481.905 1366.44 481.485 1366.44 480.966V480.208C1366.44 479.69 1366.02 479.269 1365.5 479.269Z" fill="#111C63"/>
<g style="mix-blend-mode:multiply" opacity="0.5">
<path fill-rule="evenodd" clip-rule="evenodd" d="M1364.68 503.866C1364.68 503.866 1364.68 503.866 1364.69 503.866C1368.07 503.866 1370.81 501.125 1370.81 497.743V463.458H1372.55C1374 463.458 1375.18 462.278 1375.18 460.822C1375.18 459.367 1374 458.187 1372.55 458.187H1364.68V503.866Z" fill="#DEE6F8"/>
</g>
<rect x="1354.19" y="458.187" width="20.9918" height="5.27065" rx="2.63532" fill="#D9E1F6"/>
</g>
</g>
<defs>
<filter id="filter0_d_1_1375" x="1271.1" y="398.803" width="159.427" height="159.427" filterUnits="userSpaceOnUse" color-interpolation-filters="sRGB">
<feFlood flood-opacity="0" result="BackgroundImageFix"/>
<feColorMatrix in="SourceAlpha" type="matrix" values="0 0 0 0 0 0 0 0 0 0 0 0 0 0 0 0 0 0 127 0" result="hardAlpha"/>
<feOffset dy="2.59313"/>
<feGaussianBlur stdDeviation="13.1746"/>
<feColorMatrix type="matrix" values="0 0 0 0 0.679167 0 0 0 0 0.875595 0 0 0 0 1 0 0 0 1 0"/>
<feBlend mode="normal" in2="BackgroundImageFix" result="effect1_dropShadow_1_1375"/>
<feBlend mode="normal" in="SourceGraphic" in2="effect1_dropShadow_1_1375" result="shape"/>
</filter>
<linearGradient id="paint0_linear_1_1375" x1="1240.98" y1="420.058" x2="1488.05" y2="516.57" gradientUnits="userSpaceOnUse">
<stop stop-color="white"/>
<stop offset="1" stop-color="white" stop-opacity="0"/>
</linearGradient>
</defs>
</svg>
