<svg width="1440" height="324" preserveAspectRatio="none" viewBox="0 0 1440 324" fill="none" xmlns="http://www.w3.org/2000/svg">
<mask id="mask0_6_1355" style="mask-type:alpha" maskUnits="userSpaceOnUse" x="0" y="0" width="1440" height="324">
<rect width="1440" height="324" fill="#D9D9D9"/>
</mask>
<g mask="url(#mask0_6_1355)">
<path opacity="0.3" d="M1528.54 -36.3514C1785.98 -74.5538 1813.31 110.129 1796.15 206.522C1775.93 320.039 1682.8 361.687 1623.65 369.416C1478.15 376.864 1454.93 410.437 1435.99 443.662C1336.42 612.005 1142.98 570.132 1058.71 528.153C860.435 429.385 739.028 485.121 633.165 543.186C441.183 656.68 350.766 551.44 329.555 484.634C246.29 222.376 472.367 156.976 565.002 200.732C659.533 245.384 726.613 239.601 752.5 217.479C854.487 130.326 1004.64 185.63 1066.97 224.176C1151.56 268.93 1274.84 155.719 1325.9 93.5191C1394.06 6.53167 1489.4 -29.306 1528.54 -36.3514Z" fill="url(#paint0_linear_6_1355)"/>
<g filter="url(#filter0_d_6_1355)">
<path d="M1013 281.008C1213.58 238.479 1344 199.667 1449 234.467V1916.47C1234.6 1868.31 1041 1910.47 943 1922.47C626.256 1961.25 455 1916.48 343 1897C152.6 1863.9 38 1901.6 -4 1911V320.263C80 273.236 139 264.067 409 291.342C670.116 317.721 709 345.466 1013 281.008Z" fill="white"/>
</g>
</g>
<defs>
<filter id="filter0_d_6_1355" x="-44" y="151.002" width="1613" height="1876.79" filterUnits="userSpaceOnUse" color-interpolation-filters="sRGB">
<feFlood flood-opacity="0" result="BackgroundImageFix"/>
<feColorMatrix in="SourceAlpha" type="matrix" values="0 0 0 0 0 0 0 0 0 0 0 0 0 0 0 0 0 0 127 0" result="hardAlpha"/>
<feOffset dx="40" dy="10"/>
<feGaussianBlur stdDeviation="40"/>
<feColorMatrix type="matrix" values="0 0 0 0 0.779844 0 0 0 0 0.814654 0 0 0 0 0.904167 0 0 0 1 0"/>
<feBlend mode="normal" in2="BackgroundImageFix" result="effect1_dropShadow_6_1355"/>
<feBlend mode="normal" in="SourceGraphic" in2="effect1_dropShadow_6_1355" result="shape"/>
</filter>
<linearGradient id="paint0_linear_6_1355" x1="449.591" y1="403.717" x2="1578.34" y2="-646.192" gradientUnits="userSpaceOnUse">
<stop stop-color="#FFEFE8"/>
<stop offset="0.267793" stop-color="#FEDFFF"/>
<stop offset="0.633244" stop-color="#615EEE" stop-opacity="0.37"/>
<stop offset="0.993208" stop-color="#565CEA" stop-opacity="0.03"/>
</linearGradient>
</defs>
</svg>
