<svg width="1439" height="1318" viewBox="0 0 1439 1318" fill="none" xmlns="http://www.w3.org/2000/svg">
<mask id="mask0_4_1880" style="mask-type:alpha" maskUnits="userSpaceOnUse" x="0" y="0" width="1439" height="1318">
<rect width="1439" height="1318" fill="#D9D9D9"/>
</mask>
<g mask="url(#mask0_4_1880)">
<g filter="url(#filter0_d_4_1880)">
<circle cx="47.5" cy="496.5" r="102.5" fill="url(#paint0_linear_4_1880)"/>
</g>
<circle opacity="0.3" cx="201" cy="704" r="88" fill="url(#paint1_linear_4_1880)"/>
<g filter="url(#filter1_d_4_1880)">
<circle cx="202" cy="704" r="55" fill="white"/>
</g>
<g clip-path="url(#clip0_4_1880)">
<path d="M196.802 678.696C191.439 680.933 185.366 680.906 180.019 678.614C177.642 677.595 175 679.374 175 681.96V690.841C175 698.635 177.002 706.173 180.65 712.776C182.786 716.642 185.486 720.314 188.679 723.427H208.453V690.346L196.802 678.696Z" fill="#1F31D5"/>
<path d="M223.98 678.616C218.008 681.178 211.167 680.889 205.444 677.854C204.36 677.279 203.164 677 202.015 677C200.838 677 199.66 677.284 198.587 677.853C198.003 678.163 197.407 678.444 196.803 678.696C195.629 679.278 194.775 680.489 194.775 681.961V690.841C194.775 703.2 199.81 714.998 208.454 723.427H215.319C224.082 714.881 229.001 703.041 229.001 690.841V681.962C229.001 679.374 226.358 677.596 223.98 678.616Z" fill="#1F31D5"/>
<path d="M205.838 714.312H199.643L194.184 718.359V726.776L195.595 728.819C196.019 729.094 196.448 729.364 196.883 729.627L196.883 729.627C198.461 730.581 200.224 731.002 202.002 730.999C203.769 730.997 205.551 730.576 207.12 729.627L207.12 729.627C210.038 727.864 212.806 725.879 215.32 723.427C213.833 719.115 210.303 715.578 205.838 714.312Z" fill="#FFDDCF"/>
<path d="M205.837 714.311C198.391 712.199 191.017 716.636 188.679 723.427C190.798 725.494 193.101 727.195 195.594 728.819C195.594 727.428 195.464 724.572 197.266 721.219C197.266 721.219 197.265 721.219 197.264 721.219C199.056 717.887 202.146 715.359 205.837 714.311Z" fill="#FFCBBE"/>
<path d="M185.119 702.587C187.437 702.587 189.316 700.708 189.316 698.39C189.316 696.072 187.437 694.193 185.119 694.193C182.801 694.193 180.922 696.072 180.922 698.39C180.922 700.708 182.801 702.587 185.119 702.587Z" fill="#FFCBBE"/>
<path d="M218.88 702.587C221.198 702.587 223.077 700.708 223.077 698.39C223.077 696.072 221.198 694.193 218.88 694.193C216.562 694.193 214.683 696.072 214.683 698.39C214.683 700.708 216.562 702.587 218.88 702.587Z" fill="#FFCBBE"/>
<path d="M201.998 687.337L185.117 698.39L199.57 715.04H204.796C212.796 713.703 218.88 706.754 218.88 698.39V698.39L201.998 687.337Z" fill="#FFDDCF"/>
<path d="M190.736 697.514H186.455L185.117 698.39C185.117 708.815 194.478 716.761 204.796 715.04C196.51 713.657 190.289 706.249 190.736 697.514Z" fill="#FFCBBE"/>
<path d="M204.794 681.739H199.476L187.97 694.749L190.734 697.514C195.785 695.897 199.934 692.166 201.996 687.337C204.784 693.866 211.387 698.39 218.878 698.39C218.877 690.02 212.786 683.072 204.794 681.739Z" fill="#E8B5B1"/>
<path d="M204.796 681.74C203.886 681.588 202.952 681.509 201.998 681.509C192.675 681.509 185.117 689.067 185.117 698.39C187.067 698.39 188.958 698.083 190.736 697.514C191.144 689.539 197.086 683.026 204.796 681.74Z" fill="#D6948C"/>
<path d="M192.926 705.868C194.727 705.868 196.186 704.652 196.186 703.152C196.186 701.652 194.727 700.436 192.926 700.436C191.126 700.436 189.667 701.652 189.667 703.152C189.667 704.652 191.126 705.868 192.926 705.868Z" fill="#FF8E9E"/>
<path d="M211.072 705.868C212.872 705.868 214.332 704.652 214.332 703.152C214.332 701.652 212.872 700.436 211.072 700.436C209.272 700.436 207.813 701.652 207.813 703.152C207.813 704.652 209.272 705.868 211.072 705.868Z" fill="#FF8E9E"/>
<path d="M194.863 699.653C194.413 699.653 194.048 700.018 194.048 700.468V701.772C194.048 702.222 194.413 702.587 194.863 702.587C195.313 702.587 195.678 702.222 195.678 701.772V700.468C195.678 700.018 195.313 699.653 194.863 699.653Z" fill="#313D40"/>
<path d="M204.362 701.15C204.022 700.854 203.508 700.889 203.212 701.229C202.542 701.997 201.352 701.997 200.683 701.229C200.387 700.89 199.872 700.854 199.533 701.15C199.194 701.446 199.158 701.96 199.454 702.3C200.773 703.813 203.123 703.812 204.441 702.3C204.736 701.96 204.701 701.446 204.362 701.15Z" fill="#313D40"/>
<path d="M209.368 699.41C208.086 699.41 207.042 700.454 207.042 701.736C207.042 702.186 207.407 702.551 207.857 702.551C208.307 702.551 208.672 702.186 208.672 701.736C208.672 701.352 208.984 701.04 209.368 701.04C209.752 701.04 210.064 701.352 210.064 701.736C210.064 702.186 210.429 702.551 210.879 702.551C211.329 702.551 211.694 702.186 211.694 701.736C211.694 700.453 210.65 699.41 209.368 699.41Z" fill="#313D40"/>
<path d="M205.184 720.954H204.128V719.898C204.128 719.115 203.493 718.48 202.71 718.48L197.496 723.065L202.71 727.68C203.493 727.68 204.128 727.046 204.128 726.263V725.207H205.184C205.967 725.207 206.601 724.572 206.601 723.789V722.372C206.601 721.589 205.967 720.954 205.184 720.954Z" fill="#70DCBA"/>
<path d="M202.709 718.48H201.292C200.509 718.48 199.874 719.115 199.874 719.898V720.954H198.818C198.035 720.954 197.401 721.589 197.401 722.372V723.789C197.401 724.572 198.035 725.207 198.818 725.207H199.874V726.263C199.874 727.046 200.509 727.68 201.292 727.68H202.709C200.169 725.14 200.169 721.021 202.709 718.48Z" fill="#30CD9C"/>
<path d="M186.756 712.776H185.542V711.561C185.542 710.661 184.812 709.932 183.912 709.932L177.917 715.203L183.912 720.509C184.812 720.509 185.542 719.779 185.542 718.879V717.665H186.756C187.656 717.665 188.385 716.935 188.385 716.035V714.405C188.385 713.505 187.656 712.776 186.756 712.776Z" fill="#EFEDFF"/>
<path d="M183.91 709.932H182.28C181.38 709.932 180.65 710.661 180.65 711.561V712.776H179.436C178.536 712.776 177.806 713.505 177.806 714.405V716.035C177.806 716.935 178.536 717.665 179.436 717.665H180.65V718.879C180.65 719.779 181.38 720.509 182.28 720.509H183.91C180.989 717.588 180.989 712.852 183.91 709.932Z" fill="#D4D4FF"/>
<path d="M224.721 685.183H223.973V684.435C223.973 683.88 223.523 683.431 222.968 683.431H221.964C221.409 683.431 220.959 683.88 220.959 684.435V685.183H220.211C219.656 685.183 219.206 685.633 219.206 686.188V687.192C219.206 687.747 219.656 688.197 220.211 688.197H220.959V688.945C220.959 689.5 221.409 689.95 221.964 689.95H222.968C223.523 689.95 223.973 689.5 223.973 688.945V688.197H224.721C225.276 688.197 225.725 687.747 225.725 687.192V686.188C225.725 685.633 225.276 685.183 224.721 685.183Z" fill="#EFEDFF"/>
<path d="M182.896 687.829H182.081V687.014C182.081 686.564 181.716 686.199 181.266 686.199C180.816 686.199 180.451 686.564 180.451 687.014V687.829H179.636C179.186 687.829 178.821 688.194 178.821 688.644C178.821 689.094 179.186 689.459 179.636 689.459H180.451V690.274C180.451 690.724 180.816 691.089 181.266 691.089C181.716 691.089 182.081 690.724 182.081 690.274V689.459H182.896C183.346 689.459 183.711 689.094 183.711 688.644C183.711 688.194 183.346 687.829 182.896 687.829Z" fill="#EFEDFF"/>
<path d="M223.791 721.868H222.976V721.053C222.976 720.603 222.612 720.238 222.161 720.238C221.711 720.238 221.347 720.603 221.347 721.053V721.868H220.532C220.082 721.868 219.717 722.977 219.717 723.427C219.717 723.877 220.082 723.427 220.532 723.427H221.347C221.347 723.877 221.711 725.128 222.161 725.128C222.612 725.128 222.976 724.763 222.976 724.313V723.498H223.791C224.241 723.498 224.606 723.133 224.606 722.683C224.606 722.233 224.241 721.868 223.791 721.868Z" fill="#EFEDFF"/>
</g>
</g>
<defs>
<filter id="filter0_d_4_1880" x="-190.092" y="303.938" width="385.123" height="385.123" filterUnits="userSpaceOnUse" color-interpolation-filters="sRGB">
<feFlood flood-opacity="0" result="BackgroundImageFix"/>
<feColorMatrix in="SourceAlpha" type="matrix" values="0 0 0 0 0 0 0 0 0 0 0 0 0 0 0 0 0 0 127 0" result="hardAlpha"/>
<feOffset dx="-45.0308"/>
<feGaussianBlur stdDeviation="45.0308"/>
<feColorMatrix type="matrix" values="0 0 0 0 0.775035 0 0 0 0 0.920833 0 0 0 0 0.91342 0 0 0 1 0"/>
<feBlend mode="normal" in2="BackgroundImageFix" result="effect1_dropShadow_4_1880"/>
<feBlend mode="normal" in="SourceGraphic" in2="effect1_dropShadow_4_1880" result="shape"/>
</filter>
<filter id="filter1_d_4_1880" x="126.467" y="629.933" width="154" height="154" filterUnits="userSpaceOnUse" color-interpolation-filters="sRGB">
<feFlood flood-opacity="0" result="BackgroundImageFix"/>
<feColorMatrix in="SourceAlpha" type="matrix" values="0 0 0 0 0 0 0 0 0 0 0 0 0 0 0 0 0 0 127 0" result="hardAlpha"/>
<feOffset dx="1.46667" dy="2.93333"/>
<feGaussianBlur stdDeviation="11"/>
<feColorMatrix type="matrix" values="0 0 0 0 0.761999 0 0 0 0 0.812206 0 0 0 0 0.943231 0 0 0 1 0"/>
<feBlend mode="normal" in2="BackgroundImageFix" result="effect1_dropShadow_4_1880"/>
<feBlend mode="normal" in="SourceGraphic" in2="effect1_dropShadow_4_1880" result="shape"/>
</filter>
<linearGradient id="paint0_linear_4_1880" x1="-16.5625" y1="432.912" x2="112.184" y2="553.223" gradientUnits="userSpaceOnUse">
<stop stop-color="white"/>
<stop offset="1" stop-color="#D0F8F7"/>
</linearGradient>
<linearGradient id="paint1_linear_4_1880" x1="140.657" y1="668.8" x2="296.543" y2="732.914" gradientUnits="userSpaceOnUse">
<stop offset="0.115189" stop-color="#9EE8FF"/>
<stop offset="1" stop-color="#C2D9FC"/>
</linearGradient>
<clipPath id="clip0_4_1880">
<rect width="54" height="54" fill="white" transform="translate(175 677)"/>
</clipPath>
</defs>
</svg>
