<svg width="1439" height="1318" preserveAspectRatio="none" viewBox="0 0 1439 1318" fill="none" xmlns="http://www.w3.org/2000/svg">
<mask id="mask0_4_1880" style="mask-type:alpha" maskUnits="userSpaceOnUse" x="0" y="0" width="1439" height="1318">
<rect width="1439" height="1318" fill="#D9D9D9"/>
</mask>
<g mask="url(#mask0_4_1880)">
<path opacity="0.5" d="M-174.729 894.133C-374.133 864.543 -395.307 1007.59 -382.012 1082.26C-366.355 1170.18 -294.214 1202.44 -248.397 1208.43C-135.697 1214.2 -117.713 1240.2 -103.044 1265.94C-25.9171 1396.34 123.916 1363.9 189.191 1331.39C342.77 1254.88 436.809 1298.05 518.808 1343.03C667.513 1430.94 737.548 1349.42 753.977 1297.68C818.472 1094.54 643.358 1043.88 571.605 1077.77C498.383 1112.36 446.426 1107.88 426.374 1090.74C347.377 1023.24 231.072 1066.08 182.794 1095.93C117.27 1130.6 21.782 1042.91 -17.7716 994.728C-70.5679 927.35 -144.409 899.59 -174.729 894.133Z" fill="url(#paint0_linear_4_1880)"/>
<g filter="url(#filter0_d_4_1880)">
<path d="M1011 1118.01C1211.58 1075.48 1342 1036.66 1447 1071.47V2533.47C1232.6 2485.31 1039 2527.47 941 2539.47C624.256 2578.25 453 2533.47 341 2514C150.6 2480.89 36 2518.59 -6 2528V1157.26C78 1110.23 137 1101.06 407 1128.34C668.116 1154.72 707 1182.46 1011 1118.01Z" fill="white"/>
</g>
<g filter="url(#filter1_d_4_1880)">
<circle cx="400.5" cy="1140.5" r="43.5" fill="url(#paint1_linear_4_1880)"/>
</g>
</g>
<defs>
<filter id="filter0_d_4_1880" x="-46" y="988" width="1613" height="1656.79" filterUnits="userSpaceOnUse" color-interpolation-filters="sRGB">
<feFlood flood-opacity="0" result="BackgroundImageFix"/>
<feColorMatrix in="SourceAlpha" type="matrix" values="0 0 0 0 0 0 0 0 0 0 0 0 0 0 0 0 0 0 127 0" result="hardAlpha"/>
<feOffset dx="40" dy="10"/>
<feGaussianBlur stdDeviation="40"/>
<feColorMatrix type="matrix" values="0 0 0 0 0.641667 0 0 0 0 0.849638 0 0 0 0 0.875 0 0 0 1 0"/>
<feBlend mode="normal" in2="BackgroundImageFix" result="effect1_dropShadow_4_1880"/>
<feBlend mode="normal" in="SourceGraphic" in2="effect1_dropShadow_4_1880" result="shape"/>
</filter>
<filter id="filter1_d_4_1880" x="221.908" y="1006.94" width="267.123" height="267.123" filterUnits="userSpaceOnUse" color-interpolation-filters="sRGB">
<feFlood flood-opacity="0" result="BackgroundImageFix"/>
<feColorMatrix in="SourceAlpha" type="matrix" values="0 0 0 0 0 0 0 0 0 0 0 0 0 0 0 0 0 0 127 0" result="hardAlpha"/>
<feOffset dx="-45.0308"/>
<feGaussianBlur stdDeviation="45.0308"/>
<feColorMatrix type="matrix" values="0 0 0 0 0.7125 0 0 0 0 0.846094 0 0 0 0 0.95 0 0 0 1 0"/>
<feBlend mode="normal" in2="BackgroundImageFix" result="effect1_dropShadow_4_1880"/>
<feBlend mode="normal" in="SourceGraphic" in2="effect1_dropShadow_4_1880" result="shape"/>
</filter>
<linearGradient id="paint0_linear_4_1880" x1="404.343" y1="1305.93" x2="-254.329" y2="557.749" gradientUnits="userSpaceOnUse">
<stop stop-color="#5AD3C0" stop-opacity="0.07"/>
<stop offset="0.395805" stop-color="#80BAFF" stop-opacity="0.56"/>
<stop offset="0.676836" stop-color="#5E6EEE" stop-opacity="0.968669"/>
<stop offset="0.993208" stop-color="#565CEA" stop-opacity="0.31"/>
</linearGradient>
<linearGradient id="paint1_linear_4_1880" x1="373.313" y1="1113.51" x2="427.951" y2="1164.57" gradientUnits="userSpaceOnUse">
<stop stop-color="white"/>
<stop offset="1" stop-color="#D0F8F7"/>
</linearGradient>
</defs>
</svg>
