<svg width="1439" height="1318" viewBox="0 0 1439 1318" fill="none" xmlns="http://www.w3.org/2000/svg">
<mask id="mask0_4_1880" style="mask-type:alpha" maskUnits="userSpaceOnUse" x="0" y="0" width="1439" height="1318">
<rect width="1439" height="1318" fill="#D9D9D9"/>
</mask>
<g mask="url(#mask0_4_1880)">
<circle opacity="0.3" cx="1207.5" cy="753.5" r="79.5" fill="url(#paint0_linear_4_1880)"/>
<g filter="url(#filter0_d_4_1880)">
<circle cx="1207.69" cy="753.688" r="49.6875" fill="white"/>
</g>
<g clip-path="url(#clip0_4_1880)">
<path d="M1198.95 765.957L1195.27 762.271L1194.09 763.445L1197.78 767.131C1198.1 767.455 1198.63 767.455 1198.95 767.131C1199.28 766.807 1199.28 766.281 1198.95 765.957Z" fill="#D4D4FF"/>
<path d="M1189.34 755.419C1188.17 756.586 1186.99 757.765 1185.81 758.947L1190.4 763.539L1193.38 762.99L1193.93 760.011L1189.34 755.419Z" fill="#55DAFE"/>
<path d="M1190.4 763.539L1191.67 764.805C1192.26 765.402 1193.23 765.402 1193.83 764.805L1196.28 762.358L1193.93 760.011L1190.4 763.539Z" fill="#7CE3FF"/>
<path d="M1190.75 754.01L1188.26 756.5L1192.85 761.092L1195.31 761.061L1195.34 758.601L1190.75 754.01Z" fill="#7CE3FF"/>
<path d="M1192.85 761.092L1194.12 762.358C1194.71 762.955 1195.68 762.955 1196.28 762.358L1196.61 762.03C1197.2 761.433 1197.2 760.465 1196.61 759.868L1195.34 758.602L1192.85 761.092Z" fill="#B9F0FF"/>
<path d="M1185.5 756.764L1188.46 756.671L1188.55 753.714L1186.15 751.309H1183.1V754.359L1185.5 756.764Z" fill="#55DAFE"/>
<path d="M1180.49 752.278C1179.84 752.926 1179.84 753.977 1180.49 754.625C1181.13 755.274 1182.19 755.274 1182.83 754.625L1184.6 752.859L1182.25 750.512L1180.49 752.278Z" fill="#7CE3FF"/>
<path d="M1184.07 748.693L1182.25 750.512C1181.61 751.16 1181.61 752.211 1182.25 752.859C1182.9 753.508 1183.95 753.508 1184.6 752.859L1186.42 751.041C1187.07 750.392 1187.07 749.342 1186.42 748.693C1185.77 748.045 1184.72 748.045 1184.07 748.693Z" fill="#B9F0FF"/>
<path d="M1183.68 758.591C1183.03 759.239 1183.05 760.261 1183.71 760.912C1184.36 761.564 1185.38 761.587 1186.03 760.939L1189.16 757.81L1186.81 755.463C1184.91 757.358 1183.82 758.446 1183.68 758.591Z" fill="#7CE3FF"/>
<path d="M1190.31 751.961C1190.1 752.175 1188.82 753.457 1186.81 755.462C1186.16 756.111 1186.17 757.164 1186.82 757.816C1187.47 758.467 1188.51 758.458 1189.16 757.81L1192.66 754.308C1193.31 753.66 1193.36 752.567 1192.71 751.916C1192.06 751.264 1190.96 751.312 1190.31 751.961Z" fill="#B9F0FF"/>
<path d="M1207.05 768.474H1201.19C1200.44 770.184 1200.02 772.07 1200.02 774.052L1202.96 776.366L1205.85 774.052L1207.05 772.856C1207.05 772.856 1207.05 768.474 1207.05 768.474Z" fill="#FFCBBE"/>
<path d="M1226.88 768.474H1221.06V780.31L1222.22 782H1228.04V774.052C1228.04 772.07 1227.63 770.184 1226.88 768.474Z" fill="#2ED0FC"/>
<path d="M1218.74 760.859C1217.26 760.329 1215.67 760.044 1214.03 760.044L1207.04 764.229V780.049L1208.24 782H1222.21V771.856C1223.87 770.865 1225.49 769.696 1226.88 768.473C1225.36 764.999 1222.44 762.186 1218.74 760.859Z" fill="#55DAFE"/>
<path d="M1214.03 760.044C1212.38 760.044 1210.79 760.332 1209.32 760.859C1205.75 762.137 1202.76 764.863 1201.19 768.473C1202.57 769.695 1204.19 770.864 1205.85 771.855V774.052V782H1208.24V774.052C1208.25 767.965 1211.88 762.728 1217.09 760.382C1216.1 760.161 1215.08 760.044 1214.03 760.044Z" fill="#2ED0FC"/>
<path d="M1214.03 758.326L1209.32 760.859C1210.15 763.028 1211.8 764.746 1214.03 765.937C1216.26 764.746 1217.91 763.028 1218.74 760.859L1214.03 758.326Z" fill="#FFCBBE"/>
<path d="M1197.25 740.562C1194.94 740.562 1193.07 742.432 1193.07 744.737C1193.07 747.043 1194.94 748.912 1197.25 748.912C1199.55 748.912 1201.42 747.043 1201.42 744.737C1201.42 742.606 1199.82 740.848 1197.76 740.594C1197.59 740.573 1197.42 740.562 1197.25 740.562Z" fill="#FFCBBE"/>
<path d="M1230.83 740.562C1230.65 740.562 1230.48 740.573 1230.31 740.594C1228.25 740.848 1226.65 742.606 1226.65 744.737C1226.65 747.043 1228.52 748.912 1230.83 748.912C1233.13 748.912 1235 747.043 1235 744.737C1235 742.432 1233.13 740.562 1230.83 740.562Z" fill="#FFCBBE"/>
<path d="M1216.82 728.176L1197.24 744.737L1211.52 761.298H1216.82C1217.47 761.189 1218.11 761.042 1218.74 760.859C1222.97 759.626 1226.51 756.776 1228.64 753.022V736.453C1226.19 732.142 1221.89 729.022 1216.82 728.176Z" fill="#FFDDCF"/>
<path d="M1202.81 744.738C1202.81 742.851 1203.12 741.038 1203.7 739.346H1199.43V753.023C1201.56 756.775 1205.1 759.626 1209.32 760.859C1210.82 761.295 1212.4 761.529 1214.03 761.529C1214.98 761.529 1215.91 761.45 1216.82 761.298C1208.87 759.972 1202.81 753.063 1202.81 744.738Z" fill="#FFCBBE"/>
<path d="M1219.33 749.537C1218.57 749.537 1217.86 749.211 1217.32 748.671C1216.39 747.741 1214.86 747.82 1214.04 748.843C1213.21 747.818 1211.68 747.742 1210.75 748.671C1210.21 749.21 1209.5 749.537 1208.74 749.537C1208.4 749.537 1208.14 749.852 1208.21 750.188C1208.75 752.931 1212.27 753.804 1214.04 751.62C1215.81 753.808 1219.32 752.928 1219.86 750.188C1219.93 749.852 1219.68 749.537 1219.33 749.537Z" fill="#D6948C"/>
<path d="M1230.31 740.594C1230.31 737.003 1228.73 734.249 1226.15 731.811C1225.49 731.189 1224.6 730.878 1223.7 730.93C1223.62 730.188 1223.18 729.532 1222.53 729.173C1220.01 727.791 1217.11 727.001 1214.04 727L1205.69 729.338V738.694L1207.67 740.368C1212.62 739.672 1217.24 737.389 1220.81 733.817L1226.08 739.084C1226.44 739.449 1226.86 739.753 1227.3 739.991C1227.82 743.16 1227.65 746.447 1226.74 749.613C1226.34 751.024 1227.11 752.594 1228.64 753.022C1230.82 749.19 1231.35 744.713 1230.31 740.594Z" fill="#E8B5B1"/>
<path d="M1214.04 727C1208.4 726.998 1203.2 729.66 1199.9 734.066C1198.49 735.948 1197.76 738.244 1197.76 740.594C1196.72 744.689 1197.24 749.167 1199.43 753.022C1199.76 752.93 1200.07 752.781 1200.34 752.571C1201.26 751.871 1201.63 750.695 1201.32 749.613C1200.6 747.096 1200.34 744.491 1200.53 741.919C1200.57 741.433 1200.74 740.977 1201.01 740.594H1204.45C1205.53 740.594 1206.61 740.518 1207.68 740.368C1206.05 735.35 1209.31 729.483 1214.04 727Z" fill="#D6948C"/>
<path d="M1212.92 772.522C1212.92 769.918 1208.23 770.729 1208.23 774.052H1205.85H1200.02C1200.02 776.608 1202.1 778.68 1204.65 778.68H1212.51C1213.51 778.68 1214.39 778.043 1214.71 777.099L1215.22 775.565C1215.69 774.152 1214.73 772.522 1212.92 772.522Z" fill="#FFCBBE"/>
<path d="M1206.36 745.686C1205.9 745.686 1205.53 746.057 1205.53 746.516V747.904C1205.53 748.362 1205.9 748.734 1206.36 748.734C1206.82 748.734 1207.19 748.362 1207.19 747.904V746.516C1207.19 746.057 1206.82 745.686 1206.36 745.686Z" fill="#313D40"/>
<path d="M1221.7 745.686C1221.24 745.686 1220.87 746.057 1220.87 746.516V747.904C1220.87 748.362 1221.24 748.734 1221.7 748.734C1222.16 748.734 1222.53 748.362 1222.53 747.904V746.516C1222.53 746.057 1222.16 745.686 1221.7 745.686Z" fill="#313D40"/>
</g>
</g>
<defs>
<filter id="filter0_d_4_1880" x="1139.45" y="686.775" width="139.125" height="139.125" filterUnits="userSpaceOnUse" color-interpolation-filters="sRGB">
<feFlood flood-opacity="0" result="BackgroundImageFix"/>
<feColorMatrix in="SourceAlpha" type="matrix" values="0 0 0 0 0 0 0 0 0 0 0 0 0 0 0 0 0 0 127 0" result="hardAlpha"/>
<feOffset dx="1.325" dy="2.65"/>
<feGaussianBlur stdDeviation="9.9375"/>
<feColorMatrix type="matrix" values="0 0 0 0 0.761999 0 0 0 0 0.812206 0 0 0 0 0.943231 0 0 0 1 0"/>
<feBlend mode="normal" in2="BackgroundImageFix" result="effect1_dropShadow_4_1880"/>
<feBlend mode="normal" in="SourceGraphic" in2="effect1_dropShadow_4_1880" result="shape"/>
</filter>
<linearGradient id="paint0_linear_4_1880" x1="1152.99" y1="721.7" x2="1293.81" y2="779.621" gradientUnits="userSpaceOnUse">
<stop offset="0.115189" stop-color="#9EE8FF"/>
<stop offset="1" stop-color="#C2D9FC"/>
</linearGradient>
<clipPath id="clip0_4_1880">
<rect width="55" height="55" fill="white" transform="translate(1180 727)"/>
</clipPath>
</defs>
</svg>
