<svg width="160" height="130" viewBox="0 0 160 130" fill="none" xmlns="http://www.w3.org/2000/svg">
<rect y="0.00952148" width="160" height="120" rx="10" fill="#DAF5FB"/>
<path d="M16.092 19.0975H19.606C20.25 19.0975 20.8987 19.1815 21.552 19.3495C22.2053 19.5175 22.7933 19.7975 23.316 20.1895C23.8387 20.5722 24.2633 21.0809 24.59 21.7155C24.9167 22.3409 25.08 23.1202 25.08 24.0535C25.08 24.9215 24.9167 25.6682 24.59 26.2935C24.2633 26.9189 23.8387 27.4322 23.316 27.8335C22.7933 28.2349 22.2053 28.5335 21.552 28.7295C20.8987 28.9162 20.25 29.0095 19.606 29.0095H16.092V19.0975ZM19.326 27.4695C19.7833 27.4695 20.2407 27.4182 20.698 27.3155C21.1553 27.2035 21.566 27.0215 21.93 26.7695C22.3033 26.5082 22.6067 26.1582 22.84 25.7195C23.0733 25.2809 23.19 24.7255 23.19 24.0535C23.19 23.3442 23.0733 22.7655 22.84 22.3175C22.6067 21.8695 22.3033 21.5195 21.93 21.2675C21.566 21.0155 21.1553 20.8429 20.698 20.7495C20.2407 20.6562 19.7833 20.6095 19.326 20.6095H17.856V27.4695H19.326ZM26.3074 25.6215C26.3074 25.0895 26.4007 24.6089 26.5874 24.1795C26.7834 23.7409 27.0447 23.3675 27.3714 23.0595C27.6981 22.7515 28.0854 22.5135 28.5334 22.3455C28.9814 22.1775 29.4574 22.0935 29.9614 22.0935C30.4654 22.0935 30.9414 22.1775 31.3894 22.3455C31.8374 22.5135 32.2247 22.7515 32.5514 23.0595C32.8781 23.3675 33.1347 23.7409 33.3214 24.1795C33.5174 24.6089 33.6154 25.0895 33.6154 25.6215C33.6154 26.1535 33.5174 26.6389 33.3214 27.0775C33.1347 27.5162 32.8781 27.8942 32.5514 28.2115C32.2247 28.5195 31.8374 28.7622 31.3894 28.9395C30.9414 29.1169 30.4654 29.2055 29.9614 29.2055C29.4574 29.2055 28.9814 29.1169 28.5334 28.9395C28.0854 28.7622 27.6981 28.5195 27.3714 28.2115C27.0447 27.8942 26.7834 27.5162 26.5874 27.0775C26.4007 26.6389 26.3074 26.1535 26.3074 25.6215ZM28.0154 25.6215C28.0154 25.8829 28.0527 26.1442 28.1274 26.4055C28.2114 26.6669 28.3327 26.9002 28.4914 27.1055C28.6501 27.3109 28.8507 27.4789 29.0934 27.6095C29.3361 27.7402 29.6254 27.8055 29.9614 27.8055C30.2974 27.8055 30.5867 27.7402 30.8294 27.6095C31.0721 27.4789 31.2727 27.3109 31.4314 27.1055C31.5901 26.9002 31.7067 26.6669 31.7814 26.4055C31.8654 26.1442 31.9074 25.8829 31.9074 25.6215C31.9074 25.3602 31.8654 25.1035 31.7814 24.8515C31.7067 24.5902 31.5901 24.3569 31.4314 24.1515C31.2727 23.9462 31.0721 23.7829 30.8294 23.6615C30.5867 23.5309 30.2974 23.4655 29.9614 23.4655C29.6254 23.4655 29.3361 23.5309 29.0934 23.6615C28.8507 23.7829 28.6501 23.9462 28.4914 24.1515C28.3327 24.3569 28.2114 24.5902 28.1274 24.8515C28.0527 25.1035 28.0154 25.3602 28.0154 25.6215ZM34.2923 22.2895H36.1123L37.5123 27.1055H37.5403L38.9823 22.2895H40.7743L42.2303 27.1055H42.2583L43.6863 22.2895H45.4363L43.1123 29.0095H41.4043L39.8783 24.3055H39.8503L38.3383 29.0095H36.6303L34.2923 22.2895ZM46.4963 22.2895H48.0923V23.3675H48.1203C48.2696 23.0315 48.5263 22.7375 48.8903 22.4855C49.2636 22.2242 49.7023 22.0935 50.2063 22.0935C50.6449 22.0935 51.0183 22.1729 51.3263 22.3315C51.6436 22.4809 51.9003 22.6815 52.0963 22.9335C52.3016 23.1855 52.4509 23.4749 52.5443 23.8015C52.6376 24.1282 52.6843 24.4642 52.6843 24.8095V29.0095H51.0043V25.2855C51.0043 25.0895 50.9903 24.8842 50.9623 24.6695C50.9343 24.4549 50.8736 24.2635 50.7803 24.0955C50.6869 23.9182 50.5563 23.7735 50.3883 23.6615C50.2296 23.5495 50.0149 23.4935 49.7443 23.4935C49.4736 23.4935 49.2403 23.5495 49.0443 23.6615C48.8483 23.7642 48.6849 23.8995 48.5543 24.0675C48.4329 24.2355 48.3396 24.4315 48.2743 24.6555C48.2089 24.8702 48.1763 25.0895 48.1763 25.3135V29.0095H46.4963V22.2895ZM54.6727 18.4255H56.3527V29.0095H54.6727V18.4255ZM57.9988 25.6215C57.9988 25.0895 58.0921 24.6089 58.2788 24.1795C58.4748 23.7409 58.7361 23.3675 59.0628 23.0595C59.3895 22.7515 59.7768 22.5135 60.2248 22.3455C60.6728 22.1775 61.1488 22.0935 61.6528 22.0935C62.1568 22.0935 62.6328 22.1775 63.0808 22.3455C63.5288 22.5135 63.9161 22.7515 64.2428 23.0595C64.5695 23.3675 64.8261 23.7409 65.0128 24.1795C65.2088 24.6089 65.3068 25.0895 65.3068 25.6215C65.3068 26.1535 65.2088 26.6389 65.0128 27.0775C64.8261 27.5162 64.5695 27.8942 64.2428 28.2115C63.9161 28.5195 63.5288 28.7622 63.0808 28.9395C62.6328 29.1169 62.1568 29.2055 61.6528 29.2055C61.1488 29.2055 60.6728 29.1169 60.2248 28.9395C59.7768 28.7622 59.3895 28.5195 59.0628 28.2115C58.7361 27.8942 58.4748 27.5162 58.2788 27.0775C58.0921 26.6389 57.9988 26.1535 57.9988 25.6215ZM59.7068 25.6215C59.7068 25.8829 59.7441 26.1442 59.8188 26.4055C59.9028 26.6669 60.0241 26.9002 60.1828 27.1055C60.3415 27.3109 60.5421 27.4789 60.7848 27.6095C61.0275 27.7402 61.3168 27.8055 61.6528 27.8055C61.9888 27.8055 62.2781 27.7402 62.5208 27.6095C62.7635 27.4789 62.9641 27.3109 63.1228 27.1055C63.2815 26.9002 63.3981 26.6669 63.4728 26.4055C63.5568 26.1442 63.5988 25.8829 63.5988 25.6215C63.5988 25.3602 63.5568 25.1035 63.4728 24.8515C63.3981 24.5902 63.2815 24.3569 63.1228 24.1515C62.9641 23.9462 62.7635 23.7829 62.5208 23.6615C62.2781 23.5309 61.9888 23.4655 61.6528 23.4655C61.3168 23.4655 61.0275 23.5309 60.7848 23.6615C60.5421 23.7829 60.3415 23.9462 60.1828 24.1515C60.0241 24.3569 59.9028 24.5902 59.8188 24.8515C59.7441 25.1035 59.7068 25.3602 59.7068 25.6215ZM71.1077 28.1555H71.0657C70.8977 28.4542 70.6271 28.7015 70.2537 28.8975C69.8804 29.0842 69.4557 29.1775 68.9797 29.1775C68.7091 29.1775 68.4244 29.1402 68.1257 29.0655C67.8364 29.0002 67.5657 28.8882 67.3137 28.7295C67.0711 28.5615 66.8657 28.3469 66.6977 28.0855C66.5391 27.8149 66.4597 27.4835 66.4597 27.0915C66.4597 26.5875 66.5997 26.1862 66.8797 25.8875C67.1691 25.5889 67.5377 25.3602 67.9857 25.2015C68.4337 25.0429 68.9284 24.9402 69.4697 24.8935C70.0204 24.8375 70.5571 24.8095 71.0797 24.8095V24.6415C71.0797 24.2215 70.9257 23.9135 70.6177 23.7175C70.3191 23.5122 69.9597 23.4095 69.5397 23.4095C69.1851 23.4095 68.8444 23.4842 68.5177 23.6335C68.1911 23.7829 67.9204 23.9649 67.7057 24.1795L66.8377 23.1575C67.2204 22.8029 67.6591 22.5369 68.1537 22.3595C68.6577 22.1822 69.1664 22.0935 69.6797 22.0935C70.2771 22.0935 70.7671 22.1775 71.1497 22.3455C71.5417 22.5135 71.8497 22.7329 72.0737 23.0035C72.2977 23.2742 72.4517 23.5775 72.5357 23.9135C72.6291 24.2495 72.6757 24.5855 72.6757 24.9215V29.0095H71.1077V28.1555ZM71.0797 25.9435H70.7017C70.4311 25.9435 70.1464 25.9575 69.8477 25.9855C69.5491 26.0042 69.2737 26.0555 69.0217 26.1395C68.7697 26.2142 68.5597 26.3262 68.3917 26.4755C68.2237 26.6155 68.1397 26.8115 68.1397 27.0635C68.1397 27.2222 68.1724 27.3575 68.2377 27.4695C68.3124 27.5722 68.4057 27.6562 68.5177 27.7215C68.6297 27.7869 68.7557 27.8335 68.8957 27.8615C69.0357 27.8895 69.1757 27.9035 69.3157 27.9035C69.8944 27.9035 70.3331 27.7495 70.6317 27.4415C70.9304 27.1335 71.0797 26.7135 71.0797 26.1815V25.9435ZM81.465 29.0095H79.869V28.0015H79.841C79.6077 28.3935 79.281 28.6922 78.861 28.8975C78.4503 29.1029 78.007 29.2055 77.531 29.2055C77.0177 29.2055 76.5557 29.1122 76.145 28.9255C75.7437 28.7295 75.3983 28.4729 75.109 28.1555C74.829 27.8289 74.6097 27.4509 74.451 27.0215C74.3017 26.5829 74.227 26.1162 74.227 25.6215C74.227 25.1269 74.3063 24.6649 74.465 24.2355C74.6237 23.8062 74.8477 23.4329 75.137 23.1155C75.4263 22.7982 75.7717 22.5509 76.173 22.3735C76.5743 22.1869 77.013 22.0935 77.489 22.0935C77.797 22.0935 78.0723 22.1309 78.315 22.2055C78.5577 22.2709 78.7677 22.3549 78.945 22.4575C79.1317 22.5602 79.2903 22.6722 79.421 22.7935C79.5517 22.9149 79.659 23.0315 79.743 23.1435H79.785V18.4255H81.465V29.0095ZM75.935 25.6215C75.935 25.8829 75.9723 26.1442 76.047 26.4055C76.131 26.6669 76.2523 26.9002 76.411 27.1055C76.5697 27.3109 76.7703 27.4789 77.013 27.6095C77.2557 27.7402 77.5403 27.8055 77.867 27.8055C78.175 27.8055 78.4503 27.7449 78.693 27.6235C78.9357 27.4929 79.141 27.3249 79.309 27.1195C79.4863 26.9142 79.617 26.6855 79.701 26.4335C79.7943 26.1722 79.841 25.9109 79.841 25.6495C79.841 25.3882 79.7943 25.1269 79.701 24.8655C79.617 24.6042 79.4863 24.3709 79.309 24.1655C79.141 23.9602 78.9357 23.7922 78.693 23.6615C78.4503 23.5309 78.175 23.4655 77.867 23.4655C77.5403 23.4655 77.2557 23.5309 77.013 23.6615C76.7703 23.7829 76.5697 23.9462 76.411 24.1515C76.2523 24.3569 76.131 24.5902 76.047 24.8515C75.9723 25.1035 75.935 25.3602 75.935 25.6215ZM89.952 19.0975H91.478L95.748 29.0095H93.732L92.808 26.7415H88.51L87.614 29.0095H85.64L89.952 19.0975ZM92.192 25.2295L90.666 21.1975L89.112 25.2295H92.192ZM98.2547 22.2895V23.2275H98.2967C98.3807 23.0969 98.4881 22.9662 98.6187 22.8355C98.7587 22.6955 98.9267 22.5742 99.1227 22.4715C99.3187 22.3595 99.5381 22.2709 99.7807 22.2055C100.033 22.1309 100.313 22.0935 100.621 22.0935C101.097 22.0935 101.535 22.1869 101.937 22.3735C102.338 22.5509 102.683 22.7982 102.973 23.1155C103.262 23.4329 103.486 23.8062 103.645 24.2355C103.803 24.6649 103.883 25.1269 103.883 25.6215C103.883 26.1162 103.803 26.5829 103.645 27.0215C103.495 27.4509 103.276 27.8289 102.987 28.1555C102.707 28.4729 102.361 28.7295 101.951 28.9255C101.549 29.1122 101.092 29.2055 100.579 29.2055C100.103 29.2055 99.6641 29.1075 99.2627 28.9115C98.8707 28.7155 98.5674 28.4495 98.3527 28.1135H98.3247V32.3695H96.6447V22.2895H98.2547ZM102.175 25.6215C102.175 25.3602 102.133 25.1035 102.049 24.8515C101.974 24.5902 101.857 24.3569 101.699 24.1515C101.54 23.9462 101.339 23.7829 101.097 23.6615C100.854 23.5309 100.569 23.4655 100.243 23.4655C99.9347 23.4655 99.6594 23.5309 99.4167 23.6615C99.1741 23.7922 98.9641 23.9602 98.7867 24.1655C98.6187 24.3709 98.4881 24.6042 98.3947 24.8655C98.3107 25.1269 98.2687 25.3882 98.2687 25.6495C98.2687 25.9109 98.3107 26.1722 98.3947 26.4335C98.4881 26.6855 98.6187 26.9142 98.7867 27.1195C98.9641 27.3249 99.1741 27.4929 99.4167 27.6235C99.6594 27.7449 99.9347 27.8055 100.243 27.8055C100.569 27.8055 100.854 27.7402 101.097 27.6095C101.339 27.4789 101.54 27.3109 101.699 27.1055C101.857 26.9002 101.974 26.6669 102.049 26.4055C102.133 26.1442 102.175 25.8829 102.175 25.6215ZM107.114 22.2895V23.2275H107.156C107.24 23.0969 107.347 22.9662 107.478 22.8355C107.618 22.6955 107.786 22.5742 107.982 22.4715C108.178 22.3595 108.397 22.2709 108.64 22.2055C108.892 22.1309 109.172 22.0935 109.48 22.0935C109.956 22.0935 110.395 22.1869 110.796 22.3735C111.197 22.5509 111.543 22.7982 111.832 23.1155C112.121 23.4329 112.345 23.8062 112.504 24.2355C112.663 24.6649 112.742 25.1269 112.742 25.6215C112.742 26.1162 112.663 26.5829 112.504 27.0215C112.355 27.4509 112.135 27.8289 111.846 28.1555C111.566 28.4729 111.221 28.7295 110.81 28.9255C110.409 29.1122 109.951 29.2055 109.438 29.2055C108.962 29.2055 108.523 29.1075 108.122 28.9115C107.73 28.7155 107.427 28.4495 107.212 28.1135H107.184V32.3695H105.504V22.2895H107.114ZM111.034 25.6215C111.034 25.3602 110.992 25.1035 110.908 24.8515C110.833 24.5902 110.717 24.3569 110.558 24.1515C110.399 23.9462 110.199 23.7829 109.956 23.6615C109.713 23.5309 109.429 23.4655 109.102 23.4655C108.794 23.4655 108.519 23.5309 108.276 23.6615C108.033 23.7922 107.823 23.9602 107.646 24.1655C107.478 24.3709 107.347 24.6042 107.254 24.8655C107.17 25.1269 107.128 25.3882 107.128 25.6495C107.128 25.9109 107.17 26.1722 107.254 26.4335C107.347 26.6855 107.478 26.9142 107.646 27.1195C107.823 27.3249 108.033 27.4929 108.276 27.6235C108.519 27.7449 108.794 27.8055 109.102 27.8055C109.429 27.8055 109.713 27.7402 109.956 27.6095C110.199 27.4789 110.399 27.3109 110.558 27.1055C110.717 26.9002 110.833 26.6669 110.908 26.4055C110.992 26.1442 111.034 25.8829 111.034 25.6215ZM117.471 25.6215C117.471 25.0895 117.565 24.6089 117.751 24.1795C117.947 23.7409 118.209 23.3675 118.535 23.0595C118.862 22.7515 119.249 22.5135 119.697 22.3455C120.145 22.1775 120.621 22.0935 121.125 22.0935C121.629 22.0935 122.105 22.1775 122.553 22.3455C123.001 22.5135 123.389 22.7515 123.715 23.0595C124.042 23.3675 124.299 23.7409 124.485 24.1795C124.681 24.6089 124.779 25.0895 124.779 25.6215C124.779 26.1535 124.681 26.6389 124.485 27.0775C124.299 27.5162 124.042 27.8942 123.715 28.2115C123.389 28.5195 123.001 28.7622 122.553 28.9395C122.105 29.1169 121.629 29.2055 121.125 29.2055C120.621 29.2055 120.145 29.1169 119.697 28.9395C119.249 28.7622 118.862 28.5195 118.535 28.2115C118.209 27.8942 117.947 27.5162 117.751 27.0775C117.565 26.6389 117.471 26.1535 117.471 25.6215ZM119.179 25.6215C119.179 25.8829 119.217 26.1442 119.291 26.4055C119.375 26.6669 119.497 26.9002 119.655 27.1055C119.814 27.3109 120.015 27.4789 120.257 27.6095C120.5 27.7402 120.789 27.8055 121.125 27.8055C121.461 27.8055 121.751 27.7402 121.993 27.6095C122.236 27.4789 122.437 27.3109 122.595 27.1055C122.754 26.9002 122.871 26.6669 122.945 26.4055C123.029 26.1442 123.071 25.8829 123.071 25.6215C123.071 25.3602 123.029 25.1035 122.945 24.8515C122.871 24.5902 122.754 24.3569 122.595 24.1515C122.437 23.9462 122.236 23.7829 121.993 23.6615C121.751 23.5309 121.461 23.4655 121.125 23.4655C120.789 23.4655 120.5 23.5309 120.257 23.6615C120.015 23.7829 119.814 23.9462 119.655 24.1515C119.497 24.3569 119.375 24.5902 119.291 24.8515C119.217 25.1035 119.179 25.3602 119.179 25.6215ZM126.408 22.2895H128.004V23.3675H128.032C128.182 23.0315 128.438 22.7375 128.802 22.4855C129.176 22.2242 129.614 22.0935 130.118 22.0935C130.557 22.0935 130.93 22.1729 131.238 22.3315C131.556 22.4809 131.812 22.6815 132.008 22.9335C132.214 23.1855 132.363 23.4749 132.456 23.8015C132.55 24.1282 132.596 24.4642 132.596 24.8095V29.0095H130.916V25.2855C130.916 25.0895 130.902 24.8842 130.874 24.6695C130.846 24.4549 130.786 24.2635 130.692 24.0955C130.599 23.9182 130.468 23.7735 130.3 23.6615C130.142 23.5495 129.927 23.4935 129.656 23.4935C129.386 23.4935 129.152 23.5495 128.956 23.6615C128.76 23.7642 128.597 23.8995 128.466 24.0675C128.345 24.2355 128.252 24.4315 128.186 24.6555C128.121 24.8702 128.088 25.0895 128.088 25.3135V29.0095H126.408V22.2895ZM15.042 39.6335V38.2895H16.218V36.3435H17.87V38.2895H19.55V39.6335H17.87V42.7555C17.87 43.0542 17.9213 43.3015 18.024 43.4975C18.136 43.6935 18.3787 43.7915 18.752 43.7915C18.864 43.7915 18.9853 43.7822 19.116 43.7635C19.2467 43.7355 19.3633 43.6982 19.466 43.6515L19.522 44.9675C19.3727 45.0235 19.1953 45.0655 18.99 45.0935C18.7847 45.1309 18.5887 45.1495 18.402 45.1495C17.954 45.1495 17.59 45.0889 17.31 44.9675C17.03 44.8369 16.806 44.6642 16.638 44.4495C16.4793 44.2255 16.3673 43.9735 16.302 43.6935C16.246 43.4042 16.218 43.0962 16.218 42.7695V39.6335H15.042ZM24.5038 38.0935C24.9425 38.0935 25.3158 38.1729 25.6238 38.3315C25.9411 38.4809 26.1978 38.6815 26.3938 38.9335C26.5991 39.1855 26.7485 39.4749 26.8418 39.8015C26.9351 40.1282 26.9818 40.4642 26.9818 40.8095V45.0095H25.3018V41.3135C25.3018 41.1175 25.2878 40.9169 25.2598 40.7115C25.2318 40.4969 25.1711 40.3055 25.0778 40.1375C24.9938 39.9602 24.8678 39.8155 24.6998 39.7035C24.5411 39.5915 24.3265 39.5355 24.0558 39.5355C23.7851 39.5355 23.5518 39.5869 23.3558 39.6895C23.1598 39.7922 22.9965 39.9322 22.8658 40.1095C22.7351 40.2775 22.6371 40.4689 22.5718 40.6835C22.5065 40.8982 22.4738 41.1175 22.4738 41.3415V45.0095H20.7938V34.4255H22.4738V39.2275H22.5018C22.5671 39.0875 22.6605 38.9522 22.7818 38.8215C22.9125 38.6815 23.0618 38.5602 23.2298 38.4575C23.3978 38.3455 23.5891 38.2569 23.8038 38.1915C24.0185 38.1262 24.2518 38.0935 24.5038 38.0935ZM33.6736 40.9775C33.6736 40.7629 33.6409 40.5575 33.5756 40.3615C33.5196 40.1655 33.4263 39.9929 33.2956 39.8435C33.1649 39.6942 32.9969 39.5775 32.7916 39.4935C32.5956 39.4002 32.3623 39.3535 32.0916 39.3535C31.5876 39.3535 31.1583 39.5075 30.8036 39.8155C30.4583 40.1142 30.2669 40.5015 30.2296 40.9775H33.6736ZM35.3536 41.7335C35.3536 41.8082 35.3536 41.8829 35.3536 41.9575C35.3536 42.0322 35.3489 42.1069 35.3396 42.1815H30.2296C30.2483 42.4242 30.3089 42.6482 30.4116 42.8535C30.5236 43.0495 30.6683 43.2222 30.8456 43.3715C31.0229 43.5115 31.2236 43.6235 31.4476 43.7075C31.6716 43.7915 31.9049 43.8335 32.1476 43.8335C32.5676 43.8335 32.9223 43.7589 33.2116 43.6095C33.5009 43.4509 33.7389 43.2362 33.9256 42.9655L35.0456 43.8615C34.3829 44.7575 33.4216 45.2055 32.1616 45.2055C31.6389 45.2055 31.1583 45.1262 30.7196 44.9675C30.2809 44.7995 29.8983 44.5662 29.5716 44.2675C29.2543 43.9689 29.0023 43.6049 28.8156 43.1755C28.6383 42.7369 28.5496 42.2422 28.5496 41.6915C28.5496 41.1502 28.6383 40.6602 28.8156 40.2215C29.0023 39.7735 29.2543 39.3955 29.5716 39.0875C29.8889 38.7702 30.2623 38.5275 30.6916 38.3595C31.1303 38.1822 31.6016 38.0935 32.1056 38.0935C32.5723 38.0935 33.0016 38.1729 33.3936 38.3315C33.7949 38.4809 34.1403 38.7095 34.4296 39.0175C34.7189 39.3162 34.9429 39.6942 35.1016 40.1515C35.2696 40.5995 35.3536 41.1269 35.3536 41.7335ZM43.4266 35.0975H44.9526L49.2226 45.0095H47.2066L46.2826 42.7415H41.9846L41.0886 45.0095H39.1146L43.4266 35.0975ZM45.6666 41.2295L44.1406 37.1975L42.5866 41.2295H45.6666ZM51.7293 38.2895V39.2275H51.7713C51.8553 39.0969 51.9627 38.9662 52.0933 38.8355C52.2333 38.6955 52.4013 38.5742 52.5973 38.4715C52.7933 38.3595 53.0127 38.2709 53.2553 38.2055C53.5073 38.1309 53.7873 38.0935 54.0953 38.0935C54.5713 38.0935 55.01 38.1869 55.4113 38.3735C55.8127 38.5509 56.158 38.7982 56.4473 39.1155C56.7367 39.4329 56.9607 39.8062 57.1193 40.2355C57.278 40.6649 57.3573 41.1269 57.3573 41.6215C57.3573 42.1162 57.278 42.5829 57.1193 43.0215C56.97 43.4509 56.7507 43.8289 56.4613 44.1555C56.1813 44.4729 55.836 44.7295 55.4253 44.9255C55.024 45.1122 54.5667 45.2055 54.0533 45.2055C53.5773 45.2055 53.1387 45.1075 52.7373 44.9115C52.3453 44.7155 52.042 44.4495 51.8273 44.1135H51.7993V48.3695H50.1193V38.2895H51.7293ZM55.6493 41.6215C55.6493 41.3602 55.6073 41.1035 55.5233 40.8515C55.4487 40.5902 55.332 40.3569 55.1733 40.1515C55.0147 39.9462 54.814 39.7829 54.5713 39.6615C54.3287 39.5309 54.044 39.4655 53.7173 39.4655C53.4093 39.4655 53.134 39.5309 52.8913 39.6615C52.6487 39.7922 52.4387 39.9602 52.2613 40.1655C52.0933 40.3709 51.9627 40.6042 51.8693 40.8655C51.7853 41.1269 51.7433 41.3882 51.7433 41.6495C51.7433 41.9109 51.7853 42.1722 51.8693 42.4335C51.9627 42.6855 52.0933 42.9142 52.2613 43.1195C52.4387 43.3249 52.6487 43.4929 52.8913 43.6235C53.134 43.7449 53.4093 43.8055 53.7173 43.8055C54.044 43.8055 54.3287 43.7402 54.5713 43.6095C54.814 43.4789 55.0147 43.3109 55.1733 43.1055C55.332 42.9002 55.4487 42.6669 55.5233 42.4055C55.6073 42.1442 55.6493 41.8829 55.6493 41.6215ZM60.5887 38.2895V39.2275H60.6307C60.7147 39.0969 60.822 38.9662 60.9527 38.8355C61.0927 38.6955 61.2607 38.5742 61.4567 38.4715C61.6527 38.3595 61.872 38.2709 62.1147 38.2055C62.3667 38.1309 62.6467 38.0935 62.9547 38.0935C63.4307 38.0935 63.8694 38.1869 64.2707 38.3735C64.672 38.5509 65.0174 38.7982 65.3067 39.1155C65.596 39.4329 65.82 39.8062 65.9787 40.2355C66.1374 40.6649 66.2167 41.1269 66.2167 41.6215C66.2167 42.1162 66.1374 42.5829 65.9787 43.0215C65.8294 43.4509 65.61 43.8289 65.3207 44.1555C65.0407 44.4729 64.6954 44.7295 64.2847 44.9255C63.8834 45.1122 63.426 45.2055 62.9127 45.2055C62.4367 45.2055 61.998 45.1075 61.5967 44.9115C61.2047 44.7155 60.9014 44.4495 60.6867 44.1135H60.6587V48.3695H58.9787V38.2895H60.5887ZM64.5087 41.6215C64.5087 41.3602 64.4667 41.1035 64.3827 40.8515C64.308 40.5902 64.1914 40.3569 64.0327 40.1515C63.874 39.9462 63.6734 39.7829 63.4307 39.6615C63.188 39.5309 62.9034 39.4655 62.5767 39.4655C62.2687 39.4655 61.9934 39.5309 61.7507 39.6615C61.508 39.7922 61.298 39.9602 61.1207 40.1655C60.9527 40.3709 60.822 40.6042 60.7287 40.8655C60.6447 41.1269 60.6027 41.3882 60.6027 41.6495C60.6027 41.9109 60.6447 42.1722 60.7287 42.4335C60.822 42.6855 60.9527 42.9142 61.1207 43.1195C61.298 43.3249 61.508 43.4929 61.7507 43.6235C61.9934 43.7449 62.2687 43.8055 62.5767 43.8055C62.9034 43.8055 63.188 43.7402 63.4307 43.6095C63.6734 43.4789 63.874 43.3109 64.0327 43.1055C64.1914 42.9002 64.308 42.6669 64.3827 42.4055C64.4667 42.1442 64.5087 41.8829 64.5087 41.6215ZM76.4761 37.1695C76.2894 36.9269 76.0234 36.7262 75.6781 36.5675C75.3421 36.3995 75.0014 36.3155 74.6561 36.3155C74.4507 36.3155 74.2454 36.3435 74.0401 36.3995C73.8347 36.4462 73.6481 36.5255 73.4801 36.6375C73.3121 36.7402 73.1721 36.8802 73.0601 37.0575C72.9574 37.2255 72.9061 37.4309 72.9061 37.6735C72.9061 37.8975 72.9527 38.0889 73.0461 38.2475C73.1394 38.4062 73.2654 38.5415 73.4241 38.6535C73.5921 38.7655 73.7927 38.8635 74.0261 38.9475C74.2594 39.0315 74.5161 39.1155 74.7961 39.1995C75.1134 39.3022 75.4401 39.4189 75.7761 39.5495C76.1214 39.6802 76.4341 39.8529 76.7141 40.0675C77.0034 40.2822 77.2367 40.5529 77.4141 40.8795C77.6007 41.2062 77.6941 41.6122 77.6941 42.0975C77.6941 42.6295 77.5961 43.0962 77.4001 43.4975C77.2041 43.8895 76.9427 44.2162 76.6161 44.4775C76.2894 44.7389 75.9067 44.9349 75.4681 45.0655C75.0294 45.1962 74.5674 45.2615 74.0821 45.2615C73.4381 45.2615 72.8081 45.1449 72.1921 44.9115C71.5761 44.6689 71.0721 44.3142 70.6801 43.8475L71.9401 42.6715C72.1827 43.0075 72.5047 43.2735 72.9061 43.4695C73.3167 43.6655 73.7181 43.7635 74.1101 43.7635C74.3154 43.7635 74.5254 43.7402 74.7401 43.6935C74.9547 43.6375 75.1461 43.5489 75.3141 43.4275C75.4914 43.3062 75.6314 43.1569 75.7341 42.9795C75.8461 42.7929 75.9021 42.5642 75.9021 42.2935C75.9021 42.0322 75.8414 41.8175 75.7201 41.6495C75.5987 41.4722 75.4354 41.3229 75.2301 41.2015C75.0247 41.0709 74.7821 40.9589 74.5021 40.8655C74.2221 40.7722 73.9281 40.6742 73.6201 40.5715C73.3214 40.4782 73.0227 40.3662 72.7241 40.2355C72.4254 40.1049 72.1547 39.9322 71.9121 39.7175C71.6787 39.5029 71.4874 39.2415 71.3381 38.9335C71.1887 38.6162 71.1141 38.2242 71.1141 37.7575C71.1141 37.2535 71.2167 36.8195 71.4221 36.4555C71.6367 36.0915 71.9121 35.7929 72.2481 35.5595C72.5934 35.3169 72.9807 35.1395 73.4101 35.0275C73.8487 34.9062 74.2921 34.8455 74.7401 34.8455C75.2441 34.8455 75.7527 34.9342 76.2661 35.1115C76.7887 35.2889 77.2414 35.5549 77.6241 35.9095L76.4761 37.1695ZM78.3291 39.6335V38.2895H79.5051V36.3435H81.1571V38.2895H82.8371V39.6335H81.1571V42.7555C81.1571 43.0542 81.2084 43.3015 81.3111 43.4975C81.4231 43.6935 81.6658 43.7915 82.0391 43.7915C82.1511 43.7915 82.2724 43.7822 82.4031 43.7635C82.5338 43.7355 82.6504 43.6982 82.7531 43.6515L82.8091 44.9675C82.6598 45.0235 82.4824 45.0655 82.2771 45.0935C82.0718 45.1309 81.8758 45.1495 81.6891 45.1495C81.2411 45.1495 80.8771 45.0889 80.5971 44.9675C80.3171 44.8369 80.0931 44.6642 79.9251 44.4495C79.7664 44.2255 79.6544 43.9735 79.5891 43.6935C79.5331 43.4042 79.5051 43.0962 79.5051 42.7695V39.6335H78.3291ZM83.6609 41.6215C83.6609 41.0895 83.7543 40.6089 83.9409 40.1795C84.1369 39.7409 84.3983 39.3675 84.7249 39.0595C85.0516 38.7515 85.4389 38.5135 85.8869 38.3455C86.3349 38.1775 86.8109 38.0935 87.3149 38.0935C87.8189 38.0935 88.2949 38.1775 88.7429 38.3455C89.1909 38.5135 89.5783 38.7515 89.9049 39.0595C90.2316 39.3675 90.4883 39.7409 90.6749 40.1795C90.8709 40.6089 90.9689 41.0895 90.9689 41.6215C90.9689 42.1535 90.8709 42.6389 90.6749 43.0775C90.4883 43.5162 90.2316 43.8942 89.9049 44.2115C89.5783 44.5195 89.1909 44.7622 88.7429 44.9395C88.2949 45.1169 87.8189 45.2055 87.3149 45.2055C86.8109 45.2055 86.3349 45.1169 85.8869 44.9395C85.4389 44.7622 85.0516 44.5195 84.7249 44.2115C84.3983 43.8942 84.1369 43.5162 83.9409 43.0775C83.7543 42.6389 83.6609 42.1535 83.6609 41.6215ZM85.3689 41.6215C85.3689 41.8829 85.4063 42.1442 85.4809 42.4055C85.5649 42.6669 85.6863 42.9002 85.8449 43.1055C86.0036 43.3109 86.2043 43.4789 86.4469 43.6095C86.6896 43.7402 86.9789 43.8055 87.3149 43.8055C87.6509 43.8055 87.9403 43.7402 88.1829 43.6095C88.4256 43.4789 88.6263 43.3109 88.7849 43.1055C88.9436 42.9002 89.0603 42.6669 89.1349 42.4055C89.2189 42.1442 89.2609 41.8829 89.2609 41.6215C89.2609 41.3602 89.2189 41.1035 89.1349 40.8515C89.0603 40.5902 88.9436 40.3569 88.7849 40.1515C88.6263 39.9462 88.4256 39.7829 88.1829 39.6615C87.9403 39.5309 87.6509 39.4655 87.3149 39.4655C86.9789 39.4655 86.6896 39.5309 86.4469 39.6615C86.2043 39.7829 86.0036 39.9462 85.8449 40.1515C85.6863 40.3569 85.5649 40.5902 85.4809 40.8515C85.4063 41.1035 85.3689 41.3602 85.3689 41.6215ZM92.5978 38.2895H94.2078V39.4095H94.2358C94.4225 39.0175 94.6838 38.7002 95.0198 38.4575C95.3558 38.2149 95.7478 38.0935 96.1958 38.0935C96.2612 38.0935 96.3312 38.0982 96.4058 38.1075C96.4805 38.1075 96.5458 38.1169 96.6018 38.1355V39.6755C96.4898 39.6475 96.3918 39.6289 96.3078 39.6195C96.2332 39.6102 96.1585 39.6055 96.0838 39.6055C95.7012 39.6055 95.3932 39.6755 95.1598 39.8155C94.9265 39.9555 94.7445 40.1235 94.6138 40.3195C94.4832 40.5155 94.3945 40.7162 94.3478 40.9215C94.3012 41.1269 94.2778 41.2902 94.2778 41.4115V45.0095H92.5978V38.2895ZM102.183 40.9775C102.183 40.7629 102.151 40.5575 102.085 40.3615C102.029 40.1655 101.936 39.9929 101.805 39.8435C101.675 39.6942 101.507 39.5775 101.301 39.4935C101.105 39.4002 100.872 39.3535 100.601 39.3535C100.097 39.3535 99.668 39.5075 99.3134 39.8155C98.968 40.1142 98.7767 40.5015 98.7394 40.9775H102.183ZM103.863 41.7335C103.863 41.8082 103.863 41.8829 103.863 41.9575C103.863 42.0322 103.859 42.1069 103.849 42.1815H98.7394C98.758 42.4242 98.8187 42.6482 98.9214 42.8535C99.0334 43.0495 99.178 43.2222 99.3554 43.3715C99.5327 43.5115 99.7334 43.6235 99.9574 43.7075C100.181 43.7915 100.415 43.8335 100.657 43.8335C101.077 43.8335 101.432 43.7589 101.721 43.6095C102.011 43.4509 102.249 43.2362 102.435 42.9655L103.555 43.8615C102.893 44.7575 101.931 45.2055 100.671 45.2055C100.149 45.2055 99.668 45.1262 99.2294 44.9675C98.7907 44.7995 98.408 44.5662 98.0814 44.2675C97.764 43.9689 97.512 43.6049 97.3254 43.1755C97.148 42.7369 97.0594 42.2422 97.0594 41.6915C97.0594 41.1502 97.148 40.6602 97.3254 40.2215C97.512 39.7735 97.764 39.3955 98.0814 39.0875C98.3987 38.7702 98.772 38.5275 99.2014 38.3595C99.64 38.1822 100.111 38.0935 100.615 38.0935C101.082 38.0935 101.511 38.1729 101.903 38.3315C102.305 38.4809 102.65 38.7095 102.939 39.0175C103.229 39.3162 103.453 39.6942 103.611 40.1515C103.779 40.5995 103.863 41.1269 103.863 41.7335Z" fill="#111C63"/>
<g filter="url(#filter0_d_16_982)">
<circle cx="27" cy="91.0095" r="10" transform="rotate(-90 27 91.0095)" fill="white"/>
</g>
<path d="M25.415 87.0383C25.1605 87.2954 25.1605 87.7095 25.415 87.9666L27.9879 90.5649L25.415 93.1633C25.1605 93.4204 25.1605 93.8345 25.415 94.0916V94.0916C25.6732 94.3522 26.0944 94.3522 26.3525 94.0916L29.4908 90.9221C29.6866 90.7243 29.6866 90.4056 29.4908 90.2078L26.3525 87.0383C26.0944 86.7776 25.6732 86.7776 25.415 87.0383V87.0383Z" fill="#2320D4"/>
<g clip-path="url(#clip0_16_982)">
<path d="M137.927 70.0117H117.069C113.163 70.0117 110 73.1744 110 77.0808V97.9426C110 101.845 113.163 105.007 117.069 105.007H137.931C141.833 105.007 145 101.845 145 97.9382V77.0808C144.996 73.1744 141.833 70.0117 137.927 70.0117V70.0117Z" fill="url(#paint0_linear_16_982)"/>
<path d="M127.349 78.0519L128.058 76.8271C128.495 76.0615 129.471 75.8035 130.236 76.2409C131.002 76.6783 131.26 77.6538 130.822 78.4194L123.994 90.2392H128.933C130.534 90.2392 131.43 92.1202 130.735 93.4238H116.255C115.372 93.4238 114.663 92.7151 114.663 91.8315C114.663 90.9479 115.372 90.2392 116.255 90.2392H120.315L125.512 81.2322L123.889 78.415C123.451 77.6494 123.71 76.6827 124.475 76.2365C125.241 75.7991 126.207 76.0571 126.654 76.8227L127.349 78.0519Z" fill="white"/>
<path d="M121.207 95.0643L119.676 97.7196C119.239 98.4851 118.263 98.7432 117.498 98.3058C116.732 97.8683 116.474 96.8928 116.912 96.1273L118.049 94.1588C119.335 93.7607 120.381 94.0669 121.207 95.0643V95.0643Z" fill="white"/>
<path d="M134.392 90.2479H138.534C139.418 90.2479 140.127 90.9566 140.127 91.8402C140.127 92.7238 139.418 93.4325 138.534 93.4325H136.233L137.786 96.1271C138.224 96.8927 137.966 97.8594 137.2 98.3056C136.435 98.7431 135.468 98.485 135.022 97.7194C132.406 93.1831 130.442 89.7886 129.138 87.527C127.804 85.226 128.758 82.9163 129.698 82.1333C130.744 83.9268 132.305 86.6346 134.392 90.2479V90.2479Z" fill="white"/>
</g>
<defs>
<filter id="filter0_d_16_982" x="1" y="69.0095" width="60" height="60" filterUnits="userSpaceOnUse" color-interpolation-filters="sRGB">
<feFlood flood-opacity="0" result="BackgroundImageFix"/>
<feColorMatrix in="SourceAlpha" type="matrix" values="0 0 0 0 0 0 0 0 0 0 0 0 0 0 0 0 0 0 127 0" result="hardAlpha"/>
<feOffset dx="4" dy="8"/>
<feGaussianBlur stdDeviation="10"/>
<feColorMatrix type="matrix" values="0 0 0 0 0.79947 0 0 0 0 0.838085 0 0 0 0 0.938865 0 0 0 1 0"/>
<feBlend mode="normal" in2="BackgroundImageFix" result="effect1_dropShadow_16_982"/>
<feBlend mode="normal" in="SourceGraphic" in2="effect1_dropShadow_16_982" result="shape"/>
</filter>
<linearGradient id="paint0_linear_16_982" x1="127.5" y1="70.0117" x2="127.5" y2="105.007" gradientUnits="userSpaceOnUse">
<stop stop-color="#00BFFC"/>
<stop offset="1" stop-color="#0073F6"/>
</linearGradient>
<clipPath id="clip0_16_982">
<rect width="35" height="35" fill="white" transform="translate(110 70.0095)"/>
</clipPath>
</defs>
</svg>
