<svg width="160" height="130" viewBox="0 0 160 130" fill="none" xmlns="http://www.w3.org/2000/svg">
<rect y="0.00952148" width="160" height="120" rx="10" fill="#EAE7FB"/>
<path d="M143.447 84.8856L137.52 81.4622L131.452 87.5303L137.52 93.5979L143.467 90.1631C144.395 89.5996 144.948 88.6153 144.948 87.5303C144.948 86.4453 144.395 85.4609 143.447 84.8856V84.8856Z" fill="#FFCE00"/>
<path d="M131.452 87.5303L114.924 70.8831C114.349 71.4579 114 72.238 114 73.1003V101.91C114 102.772 114.349 103.552 114.924 104.127L131.452 87.5303Z" fill="url(#paint0_linear_16_970)"/>
<path d="M131.452 87.5301L137.52 81.462L137.53 81.4524L129.399 76.7712L118.682 70.4721C117.717 69.8766 116.546 69.8561 115.561 70.4104C115.335 70.5539 115.129 70.6978 114.924 70.8824L131.452 87.5301Z" fill="#00F076"/>
<path d="M114.924 104.127C115.129 104.311 115.335 104.455 115.561 104.599C116.053 104.865 116.567 105.009 117.08 105.009C117.634 105.009 118.168 104.845 118.661 104.558L129.399 98.289L137.529 93.6078L137.52 93.5981L131.452 87.53L114.924 104.127Z" fill="#F63448"/>
<path d="M16.092 19.0975H19.606C20.25 19.0975 20.8987 19.1815 21.552 19.3495C22.2053 19.5175 22.7933 19.7975 23.316 20.1895C23.8387 20.5722 24.2633 21.0809 24.59 21.7155C24.9167 22.3409 25.08 23.1202 25.08 24.0535C25.08 24.9215 24.9167 25.6682 24.59 26.2935C24.2633 26.9189 23.8387 27.4322 23.316 27.8335C22.7933 28.2349 22.2053 28.5335 21.552 28.7295C20.8987 28.9162 20.25 29.0095 19.606 29.0095H16.092V19.0975ZM19.326 27.4695C19.7833 27.4695 20.2407 27.4182 20.698 27.3155C21.1553 27.2035 21.566 27.0215 21.93 26.7695C22.3033 26.5082 22.6067 26.1582 22.84 25.7195C23.0733 25.2809 23.19 24.7255 23.19 24.0535C23.19 23.3442 23.0733 22.7655 22.84 22.3175C22.6067 21.8695 22.3033 21.5195 21.93 21.2675C21.566 21.0155 21.1553 20.8429 20.698 20.7495C20.2407 20.6562 19.7833 20.6095 19.326 20.6095H17.856V27.4695H19.326ZM26.3074 25.6215C26.3074 25.0895 26.4007 24.6089 26.5874 24.1795C26.7834 23.7409 27.0447 23.3675 27.3714 23.0595C27.6981 22.7515 28.0854 22.5135 28.5334 22.3455C28.9814 22.1775 29.4574 22.0935 29.9614 22.0935C30.4654 22.0935 30.9414 22.1775 31.3894 22.3455C31.8374 22.5135 32.2247 22.7515 32.5514 23.0595C32.8781 23.3675 33.1347 23.7409 33.3214 24.1795C33.5174 24.6089 33.6154 25.0895 33.6154 25.6215C33.6154 26.1535 33.5174 26.6389 33.3214 27.0775C33.1347 27.5162 32.8781 27.8942 32.5514 28.2115C32.2247 28.5195 31.8374 28.7622 31.3894 28.9395C30.9414 29.1169 30.4654 29.2055 29.9614 29.2055C29.4574 29.2055 28.9814 29.1169 28.5334 28.9395C28.0854 28.7622 27.6981 28.5195 27.3714 28.2115C27.0447 27.8942 26.7834 27.5162 26.5874 27.0775C26.4007 26.6389 26.3074 26.1535 26.3074 25.6215ZM28.0154 25.6215C28.0154 25.8829 28.0527 26.1442 28.1274 26.4055C28.2114 26.6669 28.3327 26.9002 28.4914 27.1055C28.6501 27.3109 28.8507 27.4789 29.0934 27.6095C29.3361 27.7402 29.6254 27.8055 29.9614 27.8055C30.2974 27.8055 30.5867 27.7402 30.8294 27.6095C31.0721 27.4789 31.2727 27.3109 31.4314 27.1055C31.5901 26.9002 31.7067 26.6669 31.7814 26.4055C31.8654 26.1442 31.9074 25.8829 31.9074 25.6215C31.9074 25.3602 31.8654 25.1035 31.7814 24.8515C31.7067 24.5902 31.5901 24.3569 31.4314 24.1515C31.2727 23.9462 31.0721 23.7829 30.8294 23.6615C30.5867 23.5309 30.2974 23.4655 29.9614 23.4655C29.6254 23.4655 29.3361 23.5309 29.0934 23.6615C28.8507 23.7829 28.6501 23.9462 28.4914 24.1515C28.3327 24.3569 28.2114 24.5902 28.1274 24.8515C28.0527 25.1035 28.0154 25.3602 28.0154 25.6215ZM34.2923 22.2895H36.1123L37.5123 27.1055H37.5403L38.9823 22.2895H40.7743L42.2303 27.1055H42.2583L43.6863 22.2895H45.4363L43.1123 29.0095H41.4043L39.8783 24.3055H39.8503L38.3383 29.0095H36.6303L34.2923 22.2895ZM46.4963 22.2895H48.0923V23.3675H48.1203C48.2696 23.0315 48.5263 22.7375 48.8903 22.4855C49.2636 22.2242 49.7023 22.0935 50.2063 22.0935C50.6449 22.0935 51.0183 22.1729 51.3263 22.3315C51.6436 22.4809 51.9003 22.6815 52.0963 22.9335C52.3016 23.1855 52.4509 23.4749 52.5443 23.8015C52.6376 24.1282 52.6843 24.4642 52.6843 24.8095V29.0095H51.0043V25.2855C51.0043 25.0895 50.9903 24.8842 50.9623 24.6695C50.9343 24.4549 50.8736 24.2635 50.7803 24.0955C50.6869 23.9182 50.5563 23.7735 50.3883 23.6615C50.2296 23.5495 50.0149 23.4935 49.7443 23.4935C49.4736 23.4935 49.2403 23.5495 49.0443 23.6615C48.8483 23.7642 48.6849 23.8995 48.5543 24.0675C48.4329 24.2355 48.3396 24.4315 48.2743 24.6555C48.2089 24.8702 48.1763 25.0895 48.1763 25.3135V29.0095H46.4963V22.2895ZM54.6727 18.4255H56.3527V29.0095H54.6727V18.4255ZM57.9988 25.6215C57.9988 25.0895 58.0921 24.6089 58.2788 24.1795C58.4748 23.7409 58.7361 23.3675 59.0628 23.0595C59.3895 22.7515 59.7768 22.5135 60.2248 22.3455C60.6728 22.1775 61.1488 22.0935 61.6528 22.0935C62.1568 22.0935 62.6328 22.1775 63.0808 22.3455C63.5288 22.5135 63.9161 22.7515 64.2428 23.0595C64.5695 23.3675 64.8261 23.7409 65.0128 24.1795C65.2088 24.6089 65.3068 25.0895 65.3068 25.6215C65.3068 26.1535 65.2088 26.6389 65.0128 27.0775C64.8261 27.5162 64.5695 27.8942 64.2428 28.2115C63.9161 28.5195 63.5288 28.7622 63.0808 28.9395C62.6328 29.1169 62.1568 29.2055 61.6528 29.2055C61.1488 29.2055 60.6728 29.1169 60.2248 28.9395C59.7768 28.7622 59.3895 28.5195 59.0628 28.2115C58.7361 27.8942 58.4748 27.5162 58.2788 27.0775C58.0921 26.6389 57.9988 26.1535 57.9988 25.6215ZM59.7068 25.6215C59.7068 25.8829 59.7441 26.1442 59.8188 26.4055C59.9028 26.6669 60.0241 26.9002 60.1828 27.1055C60.3415 27.3109 60.5421 27.4789 60.7848 27.6095C61.0275 27.7402 61.3168 27.8055 61.6528 27.8055C61.9888 27.8055 62.2781 27.7402 62.5208 27.6095C62.7635 27.4789 62.9641 27.3109 63.1228 27.1055C63.2815 26.9002 63.3981 26.6669 63.4728 26.4055C63.5568 26.1442 63.5988 25.8829 63.5988 25.6215C63.5988 25.3602 63.5568 25.1035 63.4728 24.8515C63.3981 24.5902 63.2815 24.3569 63.1228 24.1515C62.9641 23.9462 62.7635 23.7829 62.5208 23.6615C62.2781 23.5309 61.9888 23.4655 61.6528 23.4655C61.3168 23.4655 61.0275 23.5309 60.7848 23.6615C60.5421 23.7829 60.3415 23.9462 60.1828 24.1515C60.0241 24.3569 59.9028 24.5902 59.8188 24.8515C59.7441 25.1035 59.7068 25.3602 59.7068 25.6215ZM71.1077 28.1555H71.0657C70.8977 28.4542 70.6271 28.7015 70.2537 28.8975C69.8804 29.0842 69.4557 29.1775 68.9797 29.1775C68.7091 29.1775 68.4244 29.1402 68.1257 29.0655C67.8364 29.0002 67.5657 28.8882 67.3137 28.7295C67.0711 28.5615 66.8657 28.3469 66.6977 28.0855C66.5391 27.8149 66.4597 27.4835 66.4597 27.0915C66.4597 26.5875 66.5997 26.1862 66.8797 25.8875C67.1691 25.5889 67.5377 25.3602 67.9857 25.2015C68.4337 25.0429 68.9284 24.9402 69.4697 24.8935C70.0204 24.8375 70.5571 24.8095 71.0797 24.8095V24.6415C71.0797 24.2215 70.9257 23.9135 70.6177 23.7175C70.3191 23.5122 69.9597 23.4095 69.5397 23.4095C69.1851 23.4095 68.8444 23.4842 68.5177 23.6335C68.1911 23.7829 67.9204 23.9649 67.7057 24.1795L66.8377 23.1575C67.2204 22.8029 67.6591 22.5369 68.1537 22.3595C68.6577 22.1822 69.1664 22.0935 69.6797 22.0935C70.2771 22.0935 70.7671 22.1775 71.1497 22.3455C71.5417 22.5135 71.8497 22.7329 72.0737 23.0035C72.2977 23.2742 72.4517 23.5775 72.5357 23.9135C72.6291 24.2495 72.6757 24.5855 72.6757 24.9215V29.0095H71.1077V28.1555ZM71.0797 25.9435H70.7017C70.4311 25.9435 70.1464 25.9575 69.8477 25.9855C69.5491 26.0042 69.2737 26.0555 69.0217 26.1395C68.7697 26.2142 68.5597 26.3262 68.3917 26.4755C68.2237 26.6155 68.1397 26.8115 68.1397 27.0635C68.1397 27.2222 68.1724 27.3575 68.2377 27.4695C68.3124 27.5722 68.4057 27.6562 68.5177 27.7215C68.6297 27.7869 68.7557 27.8335 68.8957 27.8615C69.0357 27.8895 69.1757 27.9035 69.3157 27.9035C69.8944 27.9035 70.3331 27.7495 70.6317 27.4415C70.9304 27.1335 71.0797 26.7135 71.0797 26.1815V25.9435ZM81.465 29.0095H79.869V28.0015H79.841C79.6077 28.3935 79.281 28.6922 78.861 28.8975C78.4503 29.1029 78.007 29.2055 77.531 29.2055C77.0177 29.2055 76.5557 29.1122 76.145 28.9255C75.7437 28.7295 75.3983 28.4729 75.109 28.1555C74.829 27.8289 74.6097 27.4509 74.451 27.0215C74.3017 26.5829 74.227 26.1162 74.227 25.6215C74.227 25.1269 74.3063 24.6649 74.465 24.2355C74.6237 23.8062 74.8477 23.4329 75.137 23.1155C75.4263 22.7982 75.7717 22.5509 76.173 22.3735C76.5743 22.1869 77.013 22.0935 77.489 22.0935C77.797 22.0935 78.0723 22.1309 78.315 22.2055C78.5577 22.2709 78.7677 22.3549 78.945 22.4575C79.1317 22.5602 79.2903 22.6722 79.421 22.7935C79.5517 22.9149 79.659 23.0315 79.743 23.1435H79.785V18.4255H81.465V29.0095ZM75.935 25.6215C75.935 25.8829 75.9723 26.1442 76.047 26.4055C76.131 26.6669 76.2523 26.9002 76.411 27.1055C76.5697 27.3109 76.7703 27.4789 77.013 27.6095C77.2557 27.7402 77.5403 27.8055 77.867 27.8055C78.175 27.8055 78.4503 27.7449 78.693 27.6235C78.9357 27.4929 79.141 27.3249 79.309 27.1195C79.4863 26.9142 79.617 26.6855 79.701 26.4335C79.7943 26.1722 79.841 25.9109 79.841 25.6495C79.841 25.3882 79.7943 25.1269 79.701 24.8655C79.617 24.6042 79.4863 24.3709 79.309 24.1655C79.141 23.9602 78.9357 23.7922 78.693 23.6615C78.4503 23.5309 78.175 23.4655 77.867 23.4655C77.5403 23.4655 77.2557 23.5309 77.013 23.6615C76.7703 23.7829 76.5697 23.9462 76.411 24.1515C76.2523 24.3569 76.131 24.5902 76.047 24.8515C75.9723 25.1035 75.935 25.3602 75.935 25.6215ZM89.952 19.0975H91.478L95.748 29.0095H93.732L92.808 26.7415H88.51L87.614 29.0095H85.64L89.952 19.0975ZM92.192 25.2295L90.666 21.1975L89.112 25.2295H92.192ZM98.2547 22.2895V23.2275H98.2967C98.3807 23.0969 98.4881 22.9662 98.6187 22.8355C98.7587 22.6955 98.9267 22.5742 99.1227 22.4715C99.3187 22.3595 99.5381 22.2709 99.7807 22.2055C100.033 22.1309 100.313 22.0935 100.621 22.0935C101.097 22.0935 101.535 22.1869 101.937 22.3735C102.338 22.5509 102.683 22.7982 102.973 23.1155C103.262 23.4329 103.486 23.8062 103.645 24.2355C103.803 24.6649 103.883 25.1269 103.883 25.6215C103.883 26.1162 103.803 26.5829 103.645 27.0215C103.495 27.4509 103.276 27.8289 102.987 28.1555C102.707 28.4729 102.361 28.7295 101.951 28.9255C101.549 29.1122 101.092 29.2055 100.579 29.2055C100.103 29.2055 99.6641 29.1075 99.2627 28.9115C98.8707 28.7155 98.5674 28.4495 98.3527 28.1135H98.3247V32.3695H96.6447V22.2895H98.2547ZM102.175 25.6215C102.175 25.3602 102.133 25.1035 102.049 24.8515C101.974 24.5902 101.857 24.3569 101.699 24.1515C101.54 23.9462 101.339 23.7829 101.097 23.6615C100.854 23.5309 100.569 23.4655 100.243 23.4655C99.9347 23.4655 99.6594 23.5309 99.4167 23.6615C99.1741 23.7922 98.9641 23.9602 98.7867 24.1655C98.6187 24.3709 98.4881 24.6042 98.3947 24.8655C98.3107 25.1269 98.2687 25.3882 98.2687 25.6495C98.2687 25.9109 98.3107 26.1722 98.3947 26.4335C98.4881 26.6855 98.6187 26.9142 98.7867 27.1195C98.9641 27.3249 99.1741 27.4929 99.4167 27.6235C99.6594 27.7449 99.9347 27.8055 100.243 27.8055C100.569 27.8055 100.854 27.7402 101.097 27.6095C101.339 27.4789 101.54 27.3109 101.699 27.1055C101.857 26.9002 101.974 26.6669 102.049 26.4055C102.133 26.1442 102.175 25.8829 102.175 25.6215ZM107.114 22.2895V23.2275H107.156C107.24 23.0969 107.347 22.9662 107.478 22.8355C107.618 22.6955 107.786 22.5742 107.982 22.4715C108.178 22.3595 108.397 22.2709 108.64 22.2055C108.892 22.1309 109.172 22.0935 109.48 22.0935C109.956 22.0935 110.395 22.1869 110.796 22.3735C111.197 22.5509 111.543 22.7982 111.832 23.1155C112.121 23.4329 112.345 23.8062 112.504 24.2355C112.663 24.6649 112.742 25.1269 112.742 25.6215C112.742 26.1162 112.663 26.5829 112.504 27.0215C112.355 27.4509 112.135 27.8289 111.846 28.1555C111.566 28.4729 111.221 28.7295 110.81 28.9255C110.409 29.1122 109.951 29.2055 109.438 29.2055C108.962 29.2055 108.523 29.1075 108.122 28.9115C107.73 28.7155 107.427 28.4495 107.212 28.1135H107.184V32.3695H105.504V22.2895H107.114ZM111.034 25.6215C111.034 25.3602 110.992 25.1035 110.908 24.8515C110.833 24.5902 110.717 24.3569 110.558 24.1515C110.399 23.9462 110.199 23.7829 109.956 23.6615C109.713 23.5309 109.429 23.4655 109.102 23.4655C108.794 23.4655 108.519 23.5309 108.276 23.6615C108.033 23.7922 107.823 23.9602 107.646 24.1655C107.478 24.3709 107.347 24.6042 107.254 24.8655C107.17 25.1269 107.128 25.3882 107.128 25.6495C107.128 25.9109 107.17 26.1722 107.254 26.4335C107.347 26.6855 107.478 26.9142 107.646 27.1195C107.823 27.3249 108.033 27.4929 108.276 27.6235C108.519 27.7449 108.794 27.8055 109.102 27.8055C109.429 27.8055 109.713 27.7402 109.956 27.6095C110.199 27.4789 110.399 27.3109 110.558 27.1055C110.717 26.9002 110.833 26.6669 110.908 26.4055C110.992 26.1442 111.034 25.8829 111.034 25.6215ZM117.471 25.6215C117.471 25.0895 117.565 24.6089 117.751 24.1795C117.947 23.7409 118.209 23.3675 118.535 23.0595C118.862 22.7515 119.249 22.5135 119.697 22.3455C120.145 22.1775 120.621 22.0935 121.125 22.0935C121.629 22.0935 122.105 22.1775 122.553 22.3455C123.001 22.5135 123.389 22.7515 123.715 23.0595C124.042 23.3675 124.299 23.7409 124.485 24.1795C124.681 24.6089 124.779 25.0895 124.779 25.6215C124.779 26.1535 124.681 26.6389 124.485 27.0775C124.299 27.5162 124.042 27.8942 123.715 28.2115C123.389 28.5195 123.001 28.7622 122.553 28.9395C122.105 29.1169 121.629 29.2055 121.125 29.2055C120.621 29.2055 120.145 29.1169 119.697 28.9395C119.249 28.7622 118.862 28.5195 118.535 28.2115C118.209 27.8942 117.947 27.5162 117.751 27.0775C117.565 26.6389 117.471 26.1535 117.471 25.6215ZM119.179 25.6215C119.179 25.8829 119.217 26.1442 119.291 26.4055C119.375 26.6669 119.497 26.9002 119.655 27.1055C119.814 27.3109 120.015 27.4789 120.257 27.6095C120.5 27.7402 120.789 27.8055 121.125 27.8055C121.461 27.8055 121.751 27.7402 121.993 27.6095C122.236 27.4789 122.437 27.3109 122.595 27.1055C122.754 26.9002 122.871 26.6669 122.945 26.4055C123.029 26.1442 123.071 25.8829 123.071 25.6215C123.071 25.3602 123.029 25.1035 122.945 24.8515C122.871 24.5902 122.754 24.3569 122.595 24.1515C122.437 23.9462 122.236 23.7829 121.993 23.6615C121.751 23.5309 121.461 23.4655 121.125 23.4655C120.789 23.4655 120.5 23.5309 120.257 23.6615C120.015 23.7829 119.814 23.9462 119.655 24.1515C119.497 24.3569 119.375 24.5902 119.291 24.8515C119.217 25.1035 119.179 25.3602 119.179 25.6215ZM126.408 22.2895H128.004V23.3675H128.032C128.182 23.0315 128.438 22.7375 128.802 22.4855C129.176 22.2242 129.614 22.0935 130.118 22.0935C130.557 22.0935 130.93 22.1729 131.238 22.3315C131.556 22.4809 131.812 22.6815 132.008 22.9335C132.214 23.1855 132.363 23.4749 132.456 23.8015C132.55 24.1282 132.596 24.4642 132.596 24.8095V29.0095H130.916V25.2855C130.916 25.0895 130.902 24.8842 130.874 24.6695C130.846 24.4549 130.786 24.2635 130.692 24.0955C130.599 23.9182 130.468 23.7735 130.3 23.6615C130.142 23.5495 129.927 23.4935 129.656 23.4935C129.386 23.4935 129.152 23.5495 128.956 23.6615C128.76 23.7642 128.597 23.8995 128.466 24.0675C128.345 24.2355 128.252 24.4315 128.186 24.6555C128.121 24.8702 128.088 25.0895 128.088 25.3135V29.0095H126.408V22.2895ZM15.042 39.6335V38.2895H16.218V36.3435H17.87V38.2895H19.55V39.6335H17.87V42.7555C17.87 43.0542 17.9213 43.3015 18.024 43.4975C18.136 43.6935 18.3787 43.7915 18.752 43.7915C18.864 43.7915 18.9853 43.7822 19.116 43.7635C19.2467 43.7355 19.3633 43.6982 19.466 43.6515L19.522 44.9675C19.3727 45.0235 19.1953 45.0655 18.99 45.0935C18.7847 45.1309 18.5887 45.1495 18.402 45.1495C17.954 45.1495 17.59 45.0889 17.31 44.9675C17.03 44.8369 16.806 44.6642 16.638 44.4495C16.4793 44.2255 16.3673 43.9735 16.302 43.6935C16.246 43.4042 16.218 43.0962 16.218 42.7695V39.6335H15.042ZM24.5038 38.0935C24.9425 38.0935 25.3158 38.1729 25.6238 38.3315C25.9411 38.4809 26.1978 38.6815 26.3938 38.9335C26.5991 39.1855 26.7485 39.4749 26.8418 39.8015C26.9351 40.1282 26.9818 40.4642 26.9818 40.8095V45.0095H25.3018V41.3135C25.3018 41.1175 25.2878 40.9169 25.2598 40.7115C25.2318 40.4969 25.1711 40.3055 25.0778 40.1375C24.9938 39.9602 24.8678 39.8155 24.6998 39.7035C24.5411 39.5915 24.3265 39.5355 24.0558 39.5355C23.7851 39.5355 23.5518 39.5869 23.3558 39.6895C23.1598 39.7922 22.9965 39.9322 22.8658 40.1095C22.7351 40.2775 22.6371 40.4689 22.5718 40.6835C22.5065 40.8982 22.4738 41.1175 22.4738 41.3415V45.0095H20.7938V34.4255H22.4738V39.2275H22.5018C22.5671 39.0875 22.6605 38.9522 22.7818 38.8215C22.9125 38.6815 23.0618 38.5602 23.2298 38.4575C23.3978 38.3455 23.5891 38.2569 23.8038 38.1915C24.0185 38.1262 24.2518 38.0935 24.5038 38.0935ZM33.6736 40.9775C33.6736 40.7629 33.6409 40.5575 33.5756 40.3615C33.5196 40.1655 33.4263 39.9929 33.2956 39.8435C33.1649 39.6942 32.9969 39.5775 32.7916 39.4935C32.5956 39.4002 32.3623 39.3535 32.0916 39.3535C31.5876 39.3535 31.1583 39.5075 30.8036 39.8155C30.4583 40.1142 30.2669 40.5015 30.2296 40.9775H33.6736ZM35.3536 41.7335C35.3536 41.8082 35.3536 41.8829 35.3536 41.9575C35.3536 42.0322 35.3489 42.1069 35.3396 42.1815H30.2296C30.2483 42.4242 30.3089 42.6482 30.4116 42.8535C30.5236 43.0495 30.6683 43.2222 30.8456 43.3715C31.0229 43.5115 31.2236 43.6235 31.4476 43.7075C31.6716 43.7915 31.9049 43.8335 32.1476 43.8335C32.5676 43.8335 32.9223 43.7589 33.2116 43.6095C33.5009 43.4509 33.7389 43.2362 33.9256 42.9655L35.0456 43.8615C34.3829 44.7575 33.4216 45.2055 32.1616 45.2055C31.6389 45.2055 31.1583 45.1262 30.7196 44.9675C30.2809 44.7995 29.8983 44.5662 29.5716 44.2675C29.2543 43.9689 29.0023 43.6049 28.8156 43.1755C28.6383 42.7369 28.5496 42.2422 28.5496 41.6915C28.5496 41.1502 28.6383 40.6602 28.8156 40.2215C29.0023 39.7735 29.2543 39.3955 29.5716 39.0875C29.8889 38.7702 30.2623 38.5275 30.6916 38.3595C31.1303 38.1822 31.6016 38.0935 32.1056 38.0935C32.5723 38.0935 33.0016 38.1729 33.3936 38.3315C33.7949 38.4809 34.1403 38.7095 34.4296 39.0175C34.7189 39.3162 34.9429 39.6942 35.1016 40.1515C35.2696 40.5995 35.3536 41.1269 35.3536 41.7335ZM49.2447 44.4915C48.7407 44.7342 48.1853 44.9209 47.5787 45.0515C46.9813 45.1915 46.2907 45.2615 45.5067 45.2615C44.704 45.2615 43.9713 45.1355 43.3087 44.8835C42.646 44.6222 42.0767 44.2629 41.6007 43.8055C41.1247 43.3389 40.7513 42.7882 40.4807 42.1535C40.2193 41.5095 40.0887 40.8002 40.0887 40.0255C40.0887 39.2322 40.224 38.5182 40.4947 37.8835C40.7747 37.2395 41.1527 36.6935 41.6287 36.2455C42.114 35.7975 42.6833 35.4522 43.3367 35.2095C43.99 34.9669 44.6993 34.8455 45.4647 34.8455C46.258 34.8455 46.9813 34.9622 47.6347 35.1955C48.2973 35.4195 48.8293 35.7182 49.2307 36.0915L48.0127 37.4075C47.7607 37.1275 47.406 36.8895 46.9487 36.6935C46.5007 36.4975 46.0107 36.3995 45.4787 36.3995C44.956 36.3995 44.48 36.4929 44.0507 36.6795C43.6307 36.8662 43.2713 37.1229 42.9727 37.4495C42.674 37.7762 42.4407 38.1589 42.2727 38.5975C42.114 39.0362 42.0347 39.5122 42.0347 40.0255C42.0347 40.5575 42.114 41.0475 42.2727 41.4955C42.4407 41.9342 42.674 42.3169 42.9727 42.6435C43.2807 42.9702 43.6493 43.2269 44.0787 43.4135C44.5173 43.5909 45.012 43.6795 45.5627 43.6795C46.3187 43.6795 46.9767 43.5629 47.5367 43.3295V40.8095H45.4507V39.3535H49.2447V44.4915ZM50.9168 41.6215C50.9168 41.0895 51.0101 40.6089 51.1968 40.1795C51.3928 39.7409 51.6541 39.3675 51.9808 39.0595C52.3074 38.7515 52.6948 38.5135 53.1428 38.3455C53.5908 38.1775 54.0668 38.0935 54.5708 38.0935C55.0748 38.0935 55.5508 38.1775 55.9988 38.3455C56.4468 38.5135 56.8341 38.7515 57.1608 39.0595C57.4874 39.3675 57.7441 39.7409 57.9308 40.1795C58.1268 40.6089 58.2248 41.0895 58.2248 41.6215C58.2248 42.1535 58.1268 42.6389 57.9308 43.0775C57.7441 43.5162 57.4874 43.8942 57.1608 44.2115C56.8341 44.5195 56.4468 44.7622 55.9988 44.9395C55.5508 45.1169 55.0748 45.2055 54.5708 45.2055C54.0668 45.2055 53.5908 45.1169 53.1428 44.9395C52.6948 44.7622 52.3074 44.5195 51.9808 44.2115C51.6541 43.8942 51.3928 43.5162 51.1968 43.0775C51.0101 42.6389 50.9168 42.1535 50.9168 41.6215ZM52.6248 41.6215C52.6248 41.8829 52.6621 42.1442 52.7368 42.4055C52.8208 42.6669 52.9421 42.9002 53.1008 43.1055C53.2594 43.3109 53.4601 43.4789 53.7028 43.6095C53.9454 43.7402 54.2348 43.8055 54.5708 43.8055C54.9068 43.8055 55.1961 43.7402 55.4388 43.6095C55.6814 43.4789 55.8821 43.3109 56.0408 43.1055C56.1994 42.9002 56.3161 42.6669 56.3908 42.4055C56.4748 42.1442 56.5168 41.8829 56.5168 41.6215C56.5168 41.3602 56.4748 41.1035 56.3908 40.8515C56.3161 40.5902 56.1994 40.3569 56.0408 40.1515C55.8821 39.9462 55.6814 39.7829 55.4388 39.6615C55.1961 39.5309 54.9068 39.4655 54.5708 39.4655C54.2348 39.4655 53.9454 39.5309 53.7028 39.6615C53.4601 39.7829 53.2594 39.9462 53.1008 40.1515C52.9421 40.3569 52.8208 40.5902 52.7368 40.8515C52.6621 41.1035 52.6248 41.3602 52.6248 41.6215ZM59.4617 41.6215C59.4617 41.0895 59.555 40.6089 59.7417 40.1795C59.9377 39.7409 60.199 39.3675 60.5257 39.0595C60.8524 38.7515 61.2397 38.5135 61.6877 38.3455C62.1357 38.1775 62.6117 38.0935 63.1157 38.0935C63.6197 38.0935 64.0957 38.1775 64.5437 38.3455C64.9917 38.5135 65.379 38.7515 65.7057 39.0595C66.0324 39.3675 66.289 39.7409 66.4757 40.1795C66.6717 40.6089 66.7697 41.0895 66.7697 41.6215C66.7697 42.1535 66.6717 42.6389 66.4757 43.0775C66.289 43.5162 66.0324 43.8942 65.7057 44.2115C65.379 44.5195 64.9917 44.7622 64.5437 44.9395C64.0957 45.1169 63.6197 45.2055 63.1157 45.2055C62.6117 45.2055 62.1357 45.1169 61.6877 44.9395C61.2397 44.7622 60.8524 44.5195 60.5257 44.2115C60.199 43.8942 59.9377 43.5162 59.7417 43.0775C59.555 42.6389 59.4617 42.1535 59.4617 41.6215ZM61.1697 41.6215C61.1697 41.8829 61.207 42.1442 61.2817 42.4055C61.3657 42.6669 61.487 42.9002 61.6457 43.1055C61.8044 43.3109 62.005 43.4789 62.2477 43.6095C62.4904 43.7402 62.7797 43.8055 63.1157 43.8055C63.4517 43.8055 63.741 43.7402 63.9837 43.6095C64.2264 43.4789 64.427 43.3109 64.5857 43.1055C64.7444 42.9002 64.861 42.6669 64.9357 42.4055C65.0197 42.1442 65.0617 41.8829 65.0617 41.6215C65.0617 41.3602 65.0197 41.1035 64.9357 40.8515C64.861 40.5902 64.7444 40.3569 64.5857 40.1515C64.427 39.9462 64.2264 39.7829 63.9837 39.6615C63.741 39.5309 63.4517 39.4655 63.1157 39.4655C62.7797 39.4655 62.4904 39.5309 62.2477 39.6615C62.005 39.7829 61.8044 39.9462 61.6457 40.1515C61.487 40.3569 61.3657 40.5902 61.2817 40.8515C61.207 41.1035 61.1697 41.3602 61.1697 41.6215ZM75.2306 38.2895V44.4075C75.2306 45.0142 75.156 45.5602 75.0066 46.0455C74.8573 46.5402 74.624 46.9555 74.3066 47.2915C73.9986 47.6369 73.6066 47.9029 73.1306 48.0895C72.6546 48.2762 72.09 48.3695 71.4366 48.3695C71.166 48.3695 70.8766 48.3462 70.5686 48.2995C70.27 48.2529 69.9713 48.1829 69.6726 48.0895C69.3833 47.9962 69.1033 47.8795 68.8326 47.7395C68.562 47.5995 68.3193 47.4409 68.1046 47.2635L69.0706 45.9615C69.3973 46.2695 69.766 46.5029 70.1766 46.6615C70.5873 46.8295 71.0026 46.9135 71.4226 46.9135C71.824 46.9135 72.16 46.8529 72.4306 46.7315C72.7106 46.6195 72.93 46.4609 73.0886 46.2555C73.2566 46.0502 73.3733 45.8075 73.4386 45.5275C73.5133 45.2475 73.5506 44.9395 73.5506 44.6035V44.1135H73.5226C73.28 44.4402 72.9673 44.6922 72.5846 44.8695C72.2113 45.0375 71.7913 45.1215 71.3246 45.1215C70.8206 45.1215 70.3633 45.0282 69.9526 44.8415C69.542 44.6549 69.192 44.4029 68.9026 44.0855C68.6226 43.7682 68.4033 43.3995 68.2446 42.9795C68.086 42.5502 68.0066 42.0975 68.0066 41.6215C68.0066 41.1362 68.0813 40.6789 68.2306 40.2495C68.3893 39.8202 68.6086 39.4469 68.8886 39.1295C69.178 38.8122 69.5233 38.5602 69.9246 38.3735C70.3353 38.1869 70.7926 38.0935 71.2966 38.0935C71.7726 38.0935 72.216 38.1915 72.6266 38.3875C73.0373 38.5835 73.364 38.8869 73.6066 39.2975H73.6346V38.2895H75.2306ZM71.6466 39.4655C71.3386 39.4655 71.0633 39.5215 70.8206 39.6335C70.5873 39.7455 70.3866 39.8995 70.2186 40.0955C70.06 40.2822 69.934 40.5062 69.8406 40.7675C69.7566 41.0289 69.7146 41.3089 69.7146 41.6075C69.7146 41.8782 69.7566 42.1395 69.8406 42.3915C69.934 42.6435 70.06 42.8722 70.2186 43.0775C70.3866 43.2735 70.5873 43.4322 70.8206 43.5535C71.0633 43.6749 71.334 43.7355 71.6326 43.7355C71.9406 43.7355 72.216 43.6795 72.4586 43.5675C72.7106 43.4462 72.9206 43.2875 73.0886 43.0915C73.266 42.8955 73.4013 42.6715 73.4946 42.4195C73.588 42.1582 73.6346 41.8875 73.6346 41.6075C73.6346 41.3182 73.588 41.0429 73.4946 40.7815C73.4013 40.5202 73.266 40.2915 73.0886 40.0955C72.9206 39.8995 72.7153 39.7455 72.4726 39.6335C72.23 39.5215 71.9546 39.4655 71.6466 39.4655ZM77.2723 34.4255H78.9523V45.0095H77.2723V34.4255ZM85.7224 40.9775C85.7224 40.7629 85.6898 40.5575 85.6244 40.3615C85.5684 40.1655 85.4751 39.9929 85.3444 39.8435C85.2138 39.6942 85.0458 39.5775 84.8404 39.4935C84.6444 39.4002 84.4111 39.3535 84.1404 39.3535C83.6364 39.3535 83.2071 39.5075 82.8524 39.8155C82.5071 40.1142 82.3158 40.5015 82.2784 40.9775H85.7224ZM87.4024 41.7335C87.4024 41.8082 87.4024 41.8829 87.4024 41.9575C87.4024 42.0322 87.3978 42.1069 87.3884 42.1815H82.2784C82.2971 42.4242 82.3578 42.6482 82.4604 42.8535C82.5724 43.0495 82.7171 43.2222 82.8944 43.3715C83.0718 43.5115 83.2724 43.6235 83.4964 43.7075C83.7204 43.7915 83.9538 43.8335 84.1964 43.8335C84.6164 43.8335 84.9711 43.7589 85.2604 43.6095C85.5498 43.4509 85.7878 43.2362 85.9744 42.9655L87.0944 43.8615C86.4318 44.7575 85.4704 45.2055 84.2104 45.2055C83.6878 45.2055 83.2071 45.1262 82.7684 44.9675C82.3298 44.7995 81.9471 44.5662 81.6204 44.2675C81.3031 43.9689 81.0511 43.6049 80.8644 43.1755C80.6871 42.7369 80.5984 42.2422 80.5984 41.6915C80.5984 41.1502 80.6871 40.6602 80.8644 40.2215C81.0511 39.7735 81.3031 39.3955 81.6204 39.0875C81.9378 38.7702 82.3111 38.5275 82.7404 38.3595C83.1791 38.1822 83.6504 38.0935 84.1544 38.0935C84.6211 38.0935 85.0504 38.1729 85.4424 38.3315C85.8438 38.4809 86.1891 38.7095 86.4784 39.0175C86.7678 39.3162 86.9918 39.6942 87.1504 40.1515C87.3184 40.5995 87.4024 41.1269 87.4024 41.7335ZM92.6135 35.0975H95.8475C96.4168 35.0975 96.9302 35.1489 97.3875 35.2515C97.8448 35.3542 98.2368 35.5222 98.5635 35.7555C98.8902 35.9889 99.1422 36.2875 99.3195 36.6515C99.4968 37.0155 99.5855 37.4542 99.5855 37.9675C99.5855 38.5182 99.4828 38.9802 99.2775 39.3535C99.0722 39.7269 98.7922 40.0302 98.4375 40.2635C98.0922 40.4875 97.6862 40.6509 97.2195 40.7535C96.7528 40.8562 96.2582 40.9075 95.7355 40.9075H94.3775V45.0095H92.6135V35.0975ZM95.6095 39.4235C95.8988 39.4235 96.1742 39.4049 96.4355 39.3675C96.6968 39.3209 96.9302 39.2462 97.1355 39.1435C97.3408 39.0315 97.5042 38.8822 97.6255 38.6955C97.7468 38.5089 97.8075 38.2662 97.8075 37.9675C97.8075 37.6782 97.7468 37.4449 97.6255 37.2675C97.5042 37.0809 97.3408 36.9362 97.1355 36.8335C96.9395 36.7309 96.7108 36.6655 96.4495 36.6375C96.1975 36.6002 95.9362 36.5815 95.6655 36.5815H94.3775V39.4235H95.6095ZM101.102 34.4255H102.782V45.0095H101.102V34.4255ZM108.993 44.1555H108.951C108.783 44.4542 108.512 44.7015 108.139 44.8975C107.765 45.0842 107.341 45.1775 106.865 45.1775C106.594 45.1775 106.309 45.1402 106.011 45.0655C105.721 45.0002 105.451 44.8882 105.199 44.7295C104.956 44.5615 104.751 44.3469 104.583 44.0855C104.424 43.8149 104.345 43.4835 104.345 43.0915C104.345 42.5875 104.485 42.1862 104.765 41.8875C105.054 41.5889 105.423 41.3602 105.87 41.2015C106.319 41.0429 106.813 40.9402 107.355 40.8935C107.905 40.8375 108.442 40.8095 108.965 40.8095V40.6415C108.965 40.2215 108.811 39.9135 108.503 39.7175C108.204 39.5122 107.845 39.4095 107.425 39.4095C107.07 39.4095 106.729 39.4842 106.403 39.6335C106.076 39.7829 105.805 39.9649 105.591 40.1795L104.723 39.1575C105.105 38.8029 105.544 38.5369 106.039 38.3595C106.543 38.1822 107.051 38.0935 107.565 38.0935C108.162 38.0935 108.652 38.1775 109.035 38.3455C109.427 38.5135 109.735 38.7329 109.959 39.0035C110.183 39.2742 110.337 39.5775 110.421 39.9135C110.514 40.2495 110.561 40.5855 110.561 40.9215V45.0095H108.993V44.1555ZM108.965 41.9435H108.587C108.316 41.9435 108.031 41.9575 107.733 41.9855C107.434 42.0042 107.159 42.0555 106.907 42.1395C106.655 42.2142 106.445 42.3262 106.277 42.4755C106.109 42.6155 106.025 42.8115 106.025 43.0635C106.025 43.2222 106.057 43.3575 106.123 43.4695C106.197 43.5722 106.291 43.6562 106.403 43.7215C106.515 43.7869 106.641 43.8335 106.781 43.8615C106.921 43.8895 107.061 43.9035 107.201 43.9035C107.779 43.9035 108.218 43.7495 108.517 43.4415C108.815 43.1335 108.965 42.7135 108.965 42.1815V41.9435ZM111.51 38.2895H113.372L115.248 43.1755H115.276L116.942 38.2895H118.692L115.514 46.4515C115.392 46.7595 115.262 47.0302 115.122 47.2635C114.982 47.5062 114.814 47.7069 114.618 47.8655C114.422 48.0335 114.188 48.1595 113.918 48.2435C113.656 48.3275 113.339 48.3695 112.966 48.3695C112.826 48.3695 112.681 48.3602 112.532 48.3415C112.392 48.3322 112.247 48.3089 112.098 48.2715L112.238 46.8155C112.35 46.8529 112.457 46.8762 112.56 46.8855C112.672 46.9042 112.774 46.9135 112.868 46.9135C113.045 46.9135 113.194 46.8902 113.316 46.8435C113.437 46.8062 113.54 46.7409 113.624 46.6475C113.708 46.5635 113.782 46.4562 113.848 46.3255C113.913 46.1949 113.983 46.0409 114.058 45.8635L114.394 45.0095L111.51 38.2895Z" fill="#111C63"/>
<g filter="url(#filter0_d_16_970)">
<circle cx="27" cy="91.0095" r="10" transform="rotate(-90 27 91.0095)" fill="white"/>
</g>
<path d="M25.4151 87.0383C25.1605 87.2954 25.1605 87.7095 25.4151 87.9666L27.9879 90.5649L25.4151 93.1633C25.1605 93.4204 25.1605 93.8345 25.4151 94.0916V94.0916C25.6732 94.3522 26.0944 94.3522 26.3525 94.0916L29.4908 90.9221C29.6866 90.7243 29.6866 90.4056 29.4908 90.2078L26.3525 87.0383C26.0944 86.7776 25.6732 86.7776 25.4151 87.0383V87.0383Z" fill="#2320D4"/>
<defs>
<filter id="filter0_d_16_970" x="1" y="69.0095" width="60" height="60" filterUnits="userSpaceOnUse" color-interpolation-filters="sRGB">
<feFlood flood-opacity="0" result="BackgroundImageFix"/>
<feColorMatrix in="SourceAlpha" type="matrix" values="0 0 0 0 0 0 0 0 0 0 0 0 0 0 0 0 0 0 127 0" result="hardAlpha"/>
<feOffset dx="4" dy="8"/>
<feGaussianBlur stdDeviation="10"/>
<feColorMatrix type="matrix" values="0 0 0 0 0.79947 0 0 0 0 0.838085 0 0 0 0 0.938865 0 0 0 1 0"/>
<feBlend mode="normal" in2="BackgroundImageFix" result="effect1_dropShadow_16_970"/>
<feBlend mode="normal" in="SourceGraphic" in2="effect1_dropShadow_16_970" result="shape"/>
</filter>
<linearGradient id="paint0_linear_16_970" x1="106.613" y1="95.8161" x2="123.235" y2="79.1938" gradientUnits="userSpaceOnUse">
<stop stop-color="#00E2FF"/>
<stop offset="1" stop-color="#00C5FF"/>
</linearGradient>
</defs>
</svg>
