<svg width="1440" height="862" preserveAspectRatio="none" viewBox="0 0 1440 862" fill="none" xmlns="http://www.w3.org/2000/svg">
<mask id="mask0_7_2402" style="mask-type:alpha" maskUnits="userSpaceOnUse" x="0" y="0" width="1440" height="862">
<rect width="1440" height="862" fill="#D9D9D9"/>
</mask>
<g mask="url(#mask0_7_2402)">
<path opacity="0.5" d="M1229.74 199.16C1520.46 49.4803 1577.72 284.253 1591.09 441.032C1591.49 445.734 1590.07 450.345 1587.17 454.066L1330.93 782.627C1327.03 787.628 1320.74 790.335 1314.42 789.813C894.072 755.153 733.626 616.97 716.605 472.607C707.661 308.561 810.955 255.888 937.278 259.849C1043.84 263.191 1153.68 234.466 1229.74 199.16Z" fill="url(#paint0_linear_7_2402)"/>
<path d="M1265.55 155.284C1565.22 0.997971 1624.13 243.177 1637.86 404.707C1638.26 409.409 1636.85 414.018 1633.94 417.739L1369.62 756.673C1365.72 761.674 1359.43 764.381 1353.11 763.861C919.789 728.192 754.406 585.789 736.866 437.016C727.65 268 834.074 213.731 964.225 217.812C1074.02 221.255 1187.18 191.66 1265.55 155.284Z" fill="url(#paint1_linear_7_2402)"/>
<g filter="url(#filter0_f_7_2402)">
<circle cx="843.095" cy="286.778" r="1.11478" fill="white"/>
</g>
<g filter="url(#filter1_f_7_2402)">
<circle cx="1.11478" cy="1.11478" r="1.11478" transform="matrix(-0.568171 -0.82291 -0.82291 0.568171 867.823 267.237)" fill="white"/>
</g>
<g filter="url(#filter2_f_7_2402)">
<circle cx="0.941367" cy="0.941367" r="0.941367" transform="matrix(-0.806522 0.591204 0.591204 0.806522 807.382 334.702)" fill="white"/>
</g>
<g style="mix-blend-mode:color-dodge" filter="url(#filter3_f_7_2402)">
<circle cx="0.941367" cy="0.941367" r="0.941367" transform="matrix(0.794932 -0.606699 -0.606699 -0.794932 891.221 433.556)" fill="white"/>
</g>
<g filter="url(#filter4_f_7_2402)">
<circle cx="839.531" cy="304.611" r="1.11478" fill="white"/>
</g>
<g filter="url(#filter5_f_7_2402)">
<circle cx="1.11478" cy="1.11478" r="1.11478" transform="matrix(-0.568171 -0.82291 -0.82291 0.568171 855.174 280.306)" fill="white"/>
</g>
<g filter="url(#filter6_f_7_2402)">
<circle cx="0.941367" cy="0.941367" r="0.941367" transform="matrix(-0.806522 0.591204 0.591204 0.806522 818.716 345.08)" fill="white"/>
</g>
<g style="mix-blend-mode:color-dodge" filter="url(#filter7_f_7_2402)">
<circle cx="0.941367" cy="0.941367" r="0.941367" transform="matrix(0.794932 -0.606699 -0.606699 -0.794932 879.686 423.41)" fill="white"/>
</g>
<g filter="url(#filter8_f_7_2402)">
<circle cx="797.838" cy="392.674" r="1.78364" fill="white"/>
</g>
<g filter="url(#filter9_f_7_2402)">
<circle cx="841.318" cy="294.801" r="0.668866" fill="white"/>
</g>
<g filter="url(#filter10_f_7_2402)">
<circle cx="0.668866" cy="0.668866" r="0.668866" transform="matrix(-0.568171 -0.82291 -0.82291 0.568171 861.613 273.167)" fill="white"/>
</g>
<g filter="url(#filter11_f_7_2402)">
<circle cx="0.56482" cy="0.56482" r="0.56482" transform="matrix(-0.806522 0.591204 0.591204 0.806522 812.517 339.803)" fill="white"/>
</g>
<g style="mix-blend-mode:color-dodge" filter="url(#filter12_f_7_2402)">
<circle cx="0.56482" cy="0.56482" r="0.56482" transform="matrix(0.794932 -0.606699 -0.606699 -0.794932 885.983 428.559)" fill="white"/>
</g>
<g filter="url(#filter13_f_7_2402)">
<circle cx="835.515" cy="294.801" r="0.668866" fill="white"/>
</g>
<g filter="url(#filter14_f_7_2402)">
<circle cx="0.668866" cy="0.668866" r="0.668866" transform="matrix(-0.568171 -0.82291 -0.82291 0.568171 864.908 277.93)" fill="white"/>
</g>
<g filter="url(#filter15_f_7_2402)">
<circle cx="0.56482" cy="0.56482" r="0.56482" transform="matrix(-0.806522 0.591204 0.591204 0.806522 816.469 336.914)" fill="white"/>
</g>
<g style="mix-blend-mode:color-dodge" filter="url(#filter16_f_7_2402)">
<circle cx="0.56482" cy="0.56482" r="0.56482" transform="matrix(0.794932 -0.606699 -0.606699 -0.794932 882.091 431.53)" fill="white"/>
</g>
<g filter="url(#filter17_f_7_2402)">
<circle cx="797.838" cy="270.5" r="1.78364" fill="#94B7FF"/>
</g>
<g style="mix-blend-mode:color-dodge" filter="url(#filter18_f_7_2402)">
<circle cx="853.956" cy="253.374" r="1.78364" transform="rotate(54.134 853.956 253.374)" fill="#D7A4FF"/>
</g>
<g filter="url(#filter19_f_7_2402)">
<circle cx="876.541" cy="218.115" r="1.11478" fill="#4DFFF4"/>
</g>
<g opacity="0.5" filter="url(#filter20_f_7_2402)">
<circle cx="820.802" cy="318.879" r="1.11478" fill="white"/>
</g>
<g opacity="0.5" filter="url(#filter21_f_7_2402)">
<circle cx="1.11478" cy="1.11478" r="1.11478" transform="matrix(-1 0 0 1 837.07 268.973)" fill="white"/>
</g>
<g filter="url(#filter22_f_7_2402)">
<circle cx="883.671" cy="230.147" r="1.11478" fill="#A091FF"/>
</g>
<g filter="url(#filter23_f_7_2402)">
<circle cx="877.876" cy="454.877" r="0.668866" fill="white"/>
</g>
<g filter="url(#filter24_f_7_2402)">
<circle cx="852.576" cy="264.738" r="0.668866" fill="white"/>
</g>
<g filter="url(#filter25_f_7_2402)">
<circle cx="896.155" cy="455.331" r="0.668866" fill="white"/>
</g>
<g style="mix-blend-mode:color-dodge" opacity="0.5">
<circle cx="823.922" cy="258.231" r="20.0423" fill="url(#paint2_linear_7_2402)"/>
<circle cx="823.922" cy="258.231" r="20.0423" stroke="url(#paint3_linear_7_2402)" stroke-width="0.493331"/>
</g>
<g style="mix-blend-mode:color-dodge" opacity="0.5">
<circle cx="786.912" cy="363.476" r="6.66495" fill="url(#paint4_linear_7_2402)"/>
<circle cx="786.912" cy="363.476" r="6.66495" stroke="url(#paint5_linear_7_2402)" stroke-width="0.493331"/>
</g>
<g style="mix-blend-mode:color-dodge" opacity="0.5">
<circle cx="799.174" cy="373.066" r="2.4288" fill="url(#paint6_linear_7_2402)"/>
<circle cx="799.174" cy="373.066" r="2.4288" stroke="url(#paint7_linear_7_2402)" stroke-width="0.493331"/>
</g>
<path opacity="0.1" d="M1043.49 786.684C867.198 862.51 812.851 736.023 806.89 664.071C799.871 579.337 858.4 532.068 899.105 515.393C1001.42 482.619 1011.63 454.305 1018.86 427.046C1058.06 288.25 1203.85 281.585 1271.85 295.601C1431.83 328.579 1507.85 265.932 1572.35 204.558C1687.78 87.417 1772.09 145.368 1799.82 188.985C1908.68 360.214 1759.87 449.508 1685.58 435.803C1609.77 421.818 1563.04 438.602 1548.77 459.258C1492.52 540.635 1375.04 529.555 1323.34 513.844C1254.59 497.91 1188.08 601.881 1163.43 655.858C1131.26 730.731 1070.07 774.272 1043.49 786.684Z" fill="url(#paint8_linear_7_2402)"/>
<path opacity="0.3" d="M905.676 543.321C737.659 662.995 823.553 783.491 886.335 829.107C960.27 882.827 1036.35 855.423 1074.38 827.326C1161.57 751.61 1193.28 758.023 1222.36 766.59C1371.75 808.002 1459.2 677.771 1484.26 607.478C1543.21 442.097 1643.18 407.2 1735.55 382.176C1907.57 341.475 1901.36 231.678 1876.76 181.867C1780.17 -13.6722 1615.11 73.2343 1586.26 149.138C1556.81 226.595 1515.33 260.16 1488.38 261.755C1382.24 268.036 1326.88 382.147 1312.47 438.417C1288.76 510.47 1156.13 513.572 1092.78 506.116C1006.04 493.901 931.904 525.829 905.676 543.321Z" fill="url(#paint9_linear_7_2402)"/>
<path opacity="0.5" d="M628.259 509.421C487.586 513.987 517.812 615.758 545.572 676.29L715.02 748.042C866.677 647.502 898.307 562.348 874.662 504.915C844.159 442.318 795.047 444.103 749.081 471.61C710.304 494.815 663.707 506.817 628.259 509.421Z" fill="url(#paint10_linear_7_2402)"/>
<path opacity="0.6" d="M1434.52 505.549C1589.24 527.403 1543.71 636.121 1505.84 699.615L1310.23 758.556C1154.86 629.457 1130.12 531.687 1163.09 471.121C1204.24 405.675 1258.23 413.517 1305.68 449.372C1345.71 479.619 1395.7 498.438 1434.52 505.549Z" fill="url(#paint11_linear_7_2402)"/>
<g opacity="0.6" filter="url(#filter26_d_7_2402)">
<circle cx="1424.5" cy="191.5" r="117.5" fill="url(#paint12_linear_7_2402)"/>
</g>
<circle opacity="0.3" cx="760.5" cy="161.5" r="63.5" fill="url(#paint13_linear_7_2402)"/>
<g filter="url(#filter27_d_7_2402)">
<circle cx="760.672" cy="161.002" r="40.8271" fill="white"/>
</g>
<path d="M777.171 172.565C777.188 172.489 777.217 172.426 777.217 172.345V167.042C777.217 162.766 773.816 159.289 769.631 159.289C765.447 159.289 762.046 162.766 762.046 167.042L762.05 171.684C762.05 174.827 759.606 177.386 756.604 177.386C753.603 177.386 751.161 174.827 751.161 171.684V160.909C756.486 160.507 760.707 156.278 760.707 151.079V142.025C760.707 141.46 760.227 141 759.636 141H756.244C755.654 141 755.173 141.46 755.173 142.025C755.173 142.59 755.654 143.05 756.244 143.05H758.565V151.079C758.565 155.41 754.881 158.937 750.353 158.937C745.824 158.937 742.142 155.41 742.142 151.079V143.05H744.642C745.232 143.05 745.713 142.591 745.713 142.025C745.713 141.46 745.233 141 744.642 141H741.071C740.48 141 740 141.46 740 142.025V151.079C740 156.104 743.944 160.222 749.019 160.857V171.684C749.019 175.961 752.42 179.436 756.604 179.436C760.788 179.436 764.192 175.961 764.192 171.684L764.188 167.042C764.188 163.897 766.632 161.339 769.632 161.339C772.632 161.339 775.075 163.897 775.075 167.042V172.345C775.075 172.377 775.088 172.393 775.092 172.421C773.255 172.774 771.866 174.331 771.866 176.189C771.866 178.309 773.665 180.033 775.883 180.033C778.097 180.033 779.9 178.309 779.9 176.189C779.899 174.503 778.753 173.082 777.171 172.565ZM775.885 177.983C774.853 177.983 774.01 177.174 774.01 176.189C774.01 175.204 774.853 174.395 775.885 174.395C776.916 174.395 777.759 175.204 777.759 176.189C777.759 177.174 776.916 177.983 775.885 177.983Z" fill="#2320D4"/>
</g>
<defs>
<filter id="filter0_f_7_2402" x="840.197" y="283.88" width="5.79678" height="5.79678" filterUnits="userSpaceOnUse" color-interpolation-filters="sRGB">
<feFlood flood-opacity="0" result="BackgroundImageFix"/>
<feBlend mode="normal" in="SourceGraphic" in2="BackgroundImageFix" result="shape"/>
<feGaussianBlur stdDeviation="0.891821" result="effect1_foregroundBlur_7_2402"/>
</filter>
<filter id="filter1_f_7_2402" x="863.374" y="264.055" width="5.79702" height="5.79726" filterUnits="userSpaceOnUse" color-interpolation-filters="sRGB">
<feFlood flood-opacity="0" result="BackgroundImageFix"/>
<feBlend mode="normal" in="SourceGraphic" in2="BackgroundImageFix" result="shape"/>
<feGaussianBlur stdDeviation="0.891821" result="effect1_foregroundBlur_7_2402"/>
</filter>
<filter id="filter2_f_7_2402" x="804.732" y="333.57" width="4.89519" height="4.89519" filterUnits="userSpaceOnUse" color-interpolation-filters="sRGB">
<feFlood flood-opacity="0" result="BackgroundImageFix"/>
<feBlend mode="normal" in="SourceGraphic" in2="BackgroundImageFix" result="shape"/>
<feGaussianBlur stdDeviation="0.753093" result="effect1_foregroundBlur_7_2402"/>
</filter>
<filter id="filter3_f_7_2402" x="888.951" y="429.789" width="4.89519" height="4.89519" filterUnits="userSpaceOnUse" color-interpolation-filters="sRGB">
<feFlood flood-opacity="0" result="BackgroundImageFix"/>
<feBlend mode="normal" in="SourceGraphic" in2="BackgroundImageFix" result="shape"/>
<feGaussianBlur stdDeviation="0.753093" result="effect1_foregroundBlur_7_2402"/>
</filter>
<filter id="filter4_f_7_2402" x="836.632" y="301.713" width="5.79678" height="5.79678" filterUnits="userSpaceOnUse" color-interpolation-filters="sRGB">
<feFlood flood-opacity="0" result="BackgroundImageFix"/>
<feBlend mode="normal" in="SourceGraphic" in2="BackgroundImageFix" result="shape"/>
<feGaussianBlur stdDeviation="0.891821" result="effect1_foregroundBlur_7_2402"/>
</filter>
<filter id="filter5_f_7_2402" x="850.725" y="277.124" width="5.79702" height="5.79726" filterUnits="userSpaceOnUse" color-interpolation-filters="sRGB">
<feFlood flood-opacity="0" result="BackgroundImageFix"/>
<feBlend mode="normal" in="SourceGraphic" in2="BackgroundImageFix" result="shape"/>
<feGaussianBlur stdDeviation="0.891821" result="effect1_foregroundBlur_7_2402"/>
</filter>
<filter id="filter6_f_7_2402" x="816.066" y="343.948" width="4.89519" height="4.89519" filterUnits="userSpaceOnUse" color-interpolation-filters="sRGB">
<feFlood flood-opacity="0" result="BackgroundImageFix"/>
<feBlend mode="normal" in="SourceGraphic" in2="BackgroundImageFix" result="shape"/>
<feGaussianBlur stdDeviation="0.753093" result="effect1_foregroundBlur_7_2402"/>
</filter>
<filter id="filter7_f_7_2402" x="877.416" y="419.643" width="4.89519" height="4.89519" filterUnits="userSpaceOnUse" color-interpolation-filters="sRGB">
<feFlood flood-opacity="0" result="BackgroundImageFix"/>
<feBlend mode="normal" in="SourceGraphic" in2="BackgroundImageFix" result="shape"/>
<feGaussianBlur stdDeviation="0.753093" result="effect1_foregroundBlur_7_2402"/>
</filter>
<filter id="filter8_f_7_2402" x="794.271" y="389.106" width="7.13467" height="7.13467" filterUnits="userSpaceOnUse" color-interpolation-filters="sRGB">
<feFlood flood-opacity="0" result="BackgroundImageFix"/>
<feBlend mode="normal" in="SourceGraphic" in2="BackgroundImageFix" result="shape"/>
<feGaussianBlur stdDeviation="0.891821" result="effect1_foregroundBlur_7_2402"/>
</filter>
<filter id="filter9_f_7_2402" x="839.757" y="293.24" width="3.12129" height="3.12153" filterUnits="userSpaceOnUse" color-interpolation-filters="sRGB">
<feFlood flood-opacity="0" result="BackgroundImageFix"/>
<feBlend mode="normal" in="SourceGraphic" in2="BackgroundImageFix" result="shape"/>
<feGaussianBlur stdDeviation="0.44591" result="effect1_foregroundBlur_7_2402"/>
</filter>
<filter id="filter10_f_7_2402" x="859.122" y="271.435" width="3.12153" height="3.12153" filterUnits="userSpaceOnUse" color-interpolation-filters="sRGB">
<feFlood flood-opacity="0" result="BackgroundImageFix"/>
<feBlend mode="normal" in="SourceGraphic" in2="BackgroundImageFix" result="shape"/>
<feGaussianBlur stdDeviation="0.44591" result="effect1_foregroundBlur_7_2402"/>
</filter>
<filter id="filter11_f_7_2402" x="811.077" y="339.275" width="2.63607" height="2.63607" filterUnits="userSpaceOnUse" color-interpolation-filters="sRGB">
<feFlood flood-opacity="0" result="BackgroundImageFix"/>
<feBlend mode="normal" in="SourceGraphic" in2="BackgroundImageFix" result="shape"/>
<feGaussianBlur stdDeviation="0.376547" result="effect1_foregroundBlur_7_2402"/>
</filter>
<filter id="filter12_f_7_2402" x="884.772" y="426.45" width="2.63583" height="2.63558" filterUnits="userSpaceOnUse" color-interpolation-filters="sRGB">
<feFlood flood-opacity="0" result="BackgroundImageFix"/>
<feBlend mode="normal" in="SourceGraphic" in2="BackgroundImageFix" result="shape"/>
<feGaussianBlur stdDeviation="0.376547" result="effect1_foregroundBlur_7_2402"/>
</filter>
<filter id="filter13_f_7_2402" x="833.954" y="293.24" width="3.12129" height="3.12153" filterUnits="userSpaceOnUse" color-interpolation-filters="sRGB">
<feFlood flood-opacity="0" result="BackgroundImageFix"/>
<feBlend mode="normal" in="SourceGraphic" in2="BackgroundImageFix" result="shape"/>
<feGaussianBlur stdDeviation="0.44591" result="effect1_foregroundBlur_7_2402"/>
</filter>
<filter id="filter14_f_7_2402" x="862.417" y="276.199" width="3.12153" height="3.12153" filterUnits="userSpaceOnUse" color-interpolation-filters="sRGB">
<feFlood flood-opacity="0" result="BackgroundImageFix"/>
<feBlend mode="normal" in="SourceGraphic" in2="BackgroundImageFix" result="shape"/>
<feGaussianBlur stdDeviation="0.44591" result="effect1_foregroundBlur_7_2402"/>
</filter>
<filter id="filter15_f_7_2402" x="815.03" y="336.386" width="2.63607" height="2.63607" filterUnits="userSpaceOnUse" color-interpolation-filters="sRGB">
<feFlood flood-opacity="0" result="BackgroundImageFix"/>
<feBlend mode="normal" in="SourceGraphic" in2="BackgroundImageFix" result="shape"/>
<feGaussianBlur stdDeviation="0.376547" result="effect1_foregroundBlur_7_2402"/>
</filter>
<filter id="filter16_f_7_2402" x="880.879" y="429.42" width="2.63583" height="2.63558" filterUnits="userSpaceOnUse" color-interpolation-filters="sRGB">
<feFlood flood-opacity="0" result="BackgroundImageFix"/>
<feBlend mode="normal" in="SourceGraphic" in2="BackgroundImageFix" result="shape"/>
<feGaussianBlur stdDeviation="0.376547" result="effect1_foregroundBlur_7_2402"/>
</filter>
<filter id="filter17_f_7_2402" x="794.271" y="266.933" width="7.13467" height="7.13467" filterUnits="userSpaceOnUse" color-interpolation-filters="sRGB">
<feFlood flood-opacity="0" result="BackgroundImageFix"/>
<feBlend mode="normal" in="SourceGraphic" in2="BackgroundImageFix" result="shape"/>
<feGaussianBlur stdDeviation="0.891821" result="effect1_foregroundBlur_7_2402"/>
</filter>
<filter id="filter18_f_7_2402" x="850.388" y="249.807" width="7.13467" height="7.13515" filterUnits="userSpaceOnUse" color-interpolation-filters="sRGB">
<feFlood flood-opacity="0" result="BackgroundImageFix"/>
<feBlend mode="normal" in="SourceGraphic" in2="BackgroundImageFix" result="shape"/>
<feGaussianBlur stdDeviation="0.891821" result="effect1_foregroundBlur_7_2402"/>
</filter>
<filter id="filter19_f_7_2402" x="873.643" y="215.216" width="5.79678" height="5.79678" filterUnits="userSpaceOnUse" color-interpolation-filters="sRGB">
<feFlood flood-opacity="0" result="BackgroundImageFix"/>
<feBlend mode="normal" in="SourceGraphic" in2="BackgroundImageFix" result="shape"/>
<feGaussianBlur stdDeviation="0.891821" result="effect1_foregroundBlur_7_2402"/>
</filter>
<filter id="filter20_f_7_2402" x="817.904" y="315.981" width="5.79678" height="5.79678" filterUnits="userSpaceOnUse" color-interpolation-filters="sRGB">
<feFlood flood-opacity="0" result="BackgroundImageFix"/>
<feBlend mode="normal" in="SourceGraphic" in2="BackgroundImageFix" result="shape"/>
<feGaussianBlur stdDeviation="0.891821" result="effect1_foregroundBlur_7_2402"/>
</filter>
<filter id="filter21_f_7_2402" x="833.057" y="267.189" width="5.79678" height="5.79678" filterUnits="userSpaceOnUse" color-interpolation-filters="sRGB">
<feFlood flood-opacity="0" result="BackgroundImageFix"/>
<feBlend mode="normal" in="SourceGraphic" in2="BackgroundImageFix" result="shape"/>
<feGaussianBlur stdDeviation="0.891821" result="effect1_foregroundBlur_7_2402"/>
</filter>
<filter id="filter22_f_7_2402" x="880.772" y="227.249" width="5.79678" height="5.79678" filterUnits="userSpaceOnUse" color-interpolation-filters="sRGB">
<feFlood flood-opacity="0" result="BackgroundImageFix"/>
<feBlend mode="normal" in="SourceGraphic" in2="BackgroundImageFix" result="shape"/>
<feGaussianBlur stdDeviation="0.891821" result="effect1_foregroundBlur_7_2402"/>
</filter>
<filter id="filter23_f_7_2402" x="876.315" y="453.316" width="3.12129" height="3.12153" filterUnits="userSpaceOnUse" color-interpolation-filters="sRGB">
<feFlood flood-opacity="0" result="BackgroundImageFix"/>
<feBlend mode="normal" in="SourceGraphic" in2="BackgroundImageFix" result="shape"/>
<feGaussianBlur stdDeviation="0.44591" result="effect1_foregroundBlur_7_2402"/>
</filter>
<filter id="filter24_f_7_2402" x="851.015" y="263.177" width="3.12129" height="3.12153" filterUnits="userSpaceOnUse" color-interpolation-filters="sRGB">
<feFlood flood-opacity="0" result="BackgroundImageFix"/>
<feBlend mode="normal" in="SourceGraphic" in2="BackgroundImageFix" result="shape"/>
<feGaussianBlur stdDeviation="0.44591" result="effect1_foregroundBlur_7_2402"/>
</filter>
<filter id="filter25_f_7_2402" x="894.595" y="453.77" width="3.12129" height="3.12153" filterUnits="userSpaceOnUse" color-interpolation-filters="sRGB">
<feFlood flood-opacity="0" result="BackgroundImageFix"/>
<feBlend mode="normal" in="SourceGraphic" in2="BackgroundImageFix" result="shape"/>
<feGaussianBlur stdDeviation="0.44591" result="effect1_foregroundBlur_7_2402"/>
</filter>
<filter id="filter26_d_7_2402" x="1229.24" y="22.1579" width="338.684" height="338.684" filterUnits="userSpaceOnUse" color-interpolation-filters="sRGB">
<feFlood flood-opacity="0" result="BackgroundImageFix"/>
<feColorMatrix in="SourceAlpha" type="matrix" values="0 0 0 0 0 0 0 0 0 0 0 0 0 0 0 0 0 0 127 0" result="hardAlpha"/>
<feOffset dx="-25.9211"/>
<feGaussianBlur stdDeviation="25.9211"/>
<feColorMatrix type="matrix" values="0 0 0 0 0.893687 0 0 0 0 0.752969 0 0 0 0 0.9875 0 0 0 1 0"/>
<feBlend mode="normal" in2="BackgroundImageFix" result="effect1_dropShadow_7_2402"/>
<feBlend mode="normal" in="SourceGraphic" in2="effect1_dropShadow_7_2402" result="shape"/>
</filter>
<filter id="filter27_d_7_2402" x="699.686" y="102" width="121.972" height="121.972" filterUnits="userSpaceOnUse" color-interpolation-filters="sRGB">
<feFlood flood-opacity="0" result="BackgroundImageFix"/>
<feColorMatrix in="SourceAlpha" type="matrix" values="0 0 0 0 0 0 0 0 0 0 0 0 0 0 0 0 0 0 127 0" result="hardAlpha"/>
<feOffset dy="1.9839"/>
<feGaussianBlur stdDeviation="10.0794"/>
<feColorMatrix type="matrix" values="0 0 0 0 0.760417 0 0 0 0 0.6875 0 0 0 0 1 0 0 0 1 0"/>
<feBlend mode="normal" in2="BackgroundImageFix" result="effect1_dropShadow_7_2402"/>
<feBlend mode="normal" in="SourceGraphic" in2="effect1_dropShadow_7_2402" result="shape"/>
</filter>
<linearGradient id="paint0_linear_7_2402" x1="2021.36" y1="301.409" x2="1397.2" y2="-540.707" gradientUnits="userSpaceOnUse">
<stop stop-color="#4ADEFF"/>
<stop offset="0.488501" stop-color="#A03FED"/>
<stop offset="1" stop-color="#30007E"/>
</linearGradient>
<linearGradient id="paint1_linear_7_2402" x1="1508.5" y1="311.5" x2="867" y2="87" gradientUnits="userSpaceOnUse">
<stop stop-color="#4ADEFF"/>
<stop offset="0.488501" stop-color="#A03FED"/>
<stop offset="1" stop-color="#30007E"/>
</linearGradient>
<linearGradient id="paint2_linear_7_2402" x1="823.11" y1="240.296" x2="824.734" y2="276.167" gradientUnits="userSpaceOnUse">
<stop stop-color="#BE54D9"/>
<stop offset="1" stop-color="#1E0074"/>
</linearGradient>
<linearGradient id="paint3_linear_7_2402" x1="823.922" y1="237.942" x2="823.922" y2="278.52" gradientUnits="userSpaceOnUse">
<stop stop-color="#9F89F7"/>
<stop offset="1" stop-color="#FF8AC9" stop-opacity="0"/>
</linearGradient>
<linearGradient id="paint4_linear_7_2402" x1="786.635" y1="357.366" x2="787.188" y2="369.585" gradientUnits="userSpaceOnUse">
<stop stop-color="#BE54D9"/>
<stop offset="1" stop-color="#1E0074"/>
</linearGradient>
<linearGradient id="paint5_linear_7_2402" x1="786.912" y1="356.564" x2="786.912" y2="370.387" gradientUnits="userSpaceOnUse">
<stop stop-color="#9F89F7"/>
<stop offset="1" stop-color="#FF8AC9" stop-opacity="0"/>
</linearGradient>
<linearGradient id="paint6_linear_7_2402" x1="799.066" y1="370.701" x2="799.281" y2="375.431" gradientUnits="userSpaceOnUse">
<stop stop-color="#BE54D9"/>
<stop offset="1" stop-color="#1E0074"/>
</linearGradient>
<linearGradient id="paint7_linear_7_2402" x1="799.174" y1="370.391" x2="799.174" y2="375.742" gradientUnits="userSpaceOnUse">
<stop stop-color="#9F89F7"/>
<stop offset="1" stop-color="#FF8AC9" stop-opacity="0"/>
</linearGradient>
<linearGradient id="paint8_linear_7_2402" x1="1476.05" y1="266.592" x2="1052.22" y2="1115.65" gradientUnits="userSpaceOnUse">
<stop stop-color="#FAF3FA"/>
<stop offset="0.395805" stop-color="#E1DFFF"/>
<stop offset="0.676836" stop-color="#5E6EEE" stop-opacity="0.968669"/>
<stop offset="0.993208" stop-color="#565CEA" stop-opacity="0.31"/>
</linearGradient>
<linearGradient id="paint9_linear_7_2402" x1="1624.83" y1="436.046" x2="608.297" y2="351.786" gradientUnits="userSpaceOnUse">
<stop stop-color="#FAF3FA"/>
<stop offset="0.395805" stop-color="#E1DFFF"/>
<stop offset="0.676836" stop-color="#5E6EEE" stop-opacity="0.968669"/>
<stop offset="0.993208" stop-color="#565CEA" stop-opacity="0.31"/>
</linearGradient>
<linearGradient id="paint10_linear_7_2402" x1="898.891" y1="399.502" x2="473.811" y2="579.186" gradientUnits="userSpaceOnUse">
<stop stop-color="#FFD5C4"/>
<stop offset="0.267793" stop-color="#FEC0FF"/>
<stop offset="0.633244" stop-color="#5753FD" stop-opacity="0.72"/>
<stop offset="0.993208" stop-color="#565CEA" stop-opacity="0.08"/>
</linearGradient>
<linearGradient id="paint11_linear_7_2402" x1="1104.09" y1="449.932" x2="1509.43" y2="543.73" gradientUnits="userSpaceOnUse">
<stop stop-color="#FFFCF2" stop-opacity="0.57"/>
<stop offset="1" stop-color="#D989FF"/>
</linearGradient>
<linearGradient id="paint12_linear_7_2402" x1="1351.06" y1="118.606" x2="1498.65" y2="256.524" gradientUnits="userSpaceOnUse">
<stop stop-color="white"/>
<stop offset="1" stop-color="#EDE7FB"/>
</linearGradient>
<linearGradient id="paint13_linear_7_2402" x1="716.957" y1="136.1" x2="829.443" y2="182.364" gradientUnits="userSpaceOnUse">
<stop offset="0.115189" stop-color="#9EA2FF"/>
<stop offset="1" stop-color="#FCC2EF"/>
</linearGradient>
</defs>
</svg>
