<svg width="1440" height="347" viewBox="0 0 1440 347" fill="none" xmlns="http://www.w3.org/2000/svg">
<mask id="mask0_11_4" style="mask-type:alpha" maskUnits="userSpaceOnUse" x="0" y="0" width="1440" height="347">
<rect width="1440" height="347" fill="#D9D9D9"/>
</mask>
<g mask="url(#mask0_11_4)">
<path opacity="0.2" d="M1519.52 -29.867C1718.92 -59.4577 1740.09 83.5931 1726.8 158.257C1711.14 246.185 1639 278.444 1593.18 284.431C1480.48 290.2 1462.5 316.205 1447.83 341.941C1370.7 472.335 1220.87 439.901 1155.59 407.385C1002.02 330.882 907.978 374.053 825.979 419.029C677.273 506.939 607.239 425.423 590.809 373.676C526.314 170.537 701.428 119.88 773.181 153.772C846.403 188.359 898.361 183.879 918.412 166.744C997.41 99.2377 1113.71 142.075 1161.99 171.932C1227.52 206.597 1323 118.906 1362.56 70.7277C1415.35 3.34927 1489.19 -24.4098 1519.52 -29.867Z" fill="url(#paint0_linear_11_4)"/>
<g filter="url(#filter0_d_11_4)">
<path d="M1011 217.643C1211.58 175.114 1342 136.302 1447 171.102V1573.1C1232.6 1524.95 1039 1567.1 941 1579.1C624.256 1617.89 453 1573.11 341 1553.64C150.6 1520.53 36 1558.23 -6 1567.64V256.898C78 209.871 137 200.702 407 227.977C668.116 254.356 707 282.101 1011 217.643Z" fill="white"/>
</g>
<g filter="url(#filter1_d_11_4)">
<circle cx="359.5" cy="224.5" r="48.5" fill="url(#paint1_linear_11_4)"/>
</g>
</g>
<defs>
<filter id="filter0_d_11_4" x="-46" y="87.637" width="1613" height="1596.79" filterUnits="userSpaceOnUse" color-interpolation-filters="sRGB">
<feFlood flood-opacity="0" result="BackgroundImageFix"/>
<feColorMatrix in="SourceAlpha" type="matrix" values="0 0 0 0 0 0 0 0 0 0 0 0 0 0 0 0 0 0 127 0" result="hardAlpha"/>
<feOffset dx="40" dy="10"/>
<feGaussianBlur stdDeviation="40"/>
<feColorMatrix type="matrix" values="0 0 0 0 0.779844 0 0 0 0 0.814654 0 0 0 0 0.904167 0 0 0 1 0"/>
<feBlend mode="normal" in2="BackgroundImageFix" result="effect1_dropShadow_11_4"/>
<feBlend mode="normal" in="SourceGraphic" in2="effect1_dropShadow_11_4" result="shape"/>
</filter>
<filter id="filter1_d_11_4" x="251.452" y="136.301" width="176.398" height="176.398" filterUnits="userSpaceOnUse" color-interpolation-filters="sRGB">
<feFlood flood-opacity="0" result="BackgroundImageFix"/>
<feColorMatrix in="SourceAlpha" type="matrix" values="0 0 0 0 0 0 0 0 0 0 0 0 0 0 0 0 0 0 127 0" result="hardAlpha"/>
<feOffset dx="-19.8495"/>
<feGaussianBlur stdDeviation="19.8495"/>
<feColorMatrix type="matrix" values="0 0 0 0 0.873711 0 0 0 0 0.842535 0 0 0 0 0.958333 0 0 0 1 0"/>
<feBlend mode="normal" in2="BackgroundImageFix" result="effect1_dropShadow_11_4"/>
<feBlend mode="normal" in="SourceGraphic" in2="effect1_dropShadow_11_4" result="shape"/>
</filter>
<linearGradient id="paint0_linear_11_4" x1="683.786" y1="311" x2="1558.09" y2="-502.235" gradientUnits="userSpaceOnUse">
<stop stop-color="#FFEFE8"/>
<stop offset="0.267793" stop-color="#FEDFFF"/>
<stop offset="0.633244" stop-color="#615EEE" stop-opacity="0.37"/>
<stop offset="0.993208" stop-color="#565CEA" stop-opacity="0.03"/>
</linearGradient>
<linearGradient id="paint1_linear_11_4" x1="329.188" y1="194.412" x2="390.107" y2="251.34" gradientUnits="userSpaceOnUse">
<stop stop-color="white"/>
<stop offset="1" stop-color="#EDE7FB"/>
</linearGradient>
</defs>
</svg>
