<svg width="1440" height="259" preserveAspectRatio="none" viewBox="0 0 1440 259" fill="none" xmlns="http://www.w3.org/2000/svg">
<mask id="mask0_2_1060" style="mask-type:alpha" maskUnits="userSpaceOnUse" x="0" y="0" width="1440" height="259">
<rect width="1440" height="259" fill="#D9D9D9"/>
</mask>
<g mask="url(#mask0_2_1060)">
<path opacity="0.3" d="M-169.729 -81.867C-369.133 -111.458 -390.307 31.5931 -377.012 106.257C-361.355 194.185 -289.214 226.444 -243.397 232.431C-130.697 238.2 -112.713 264.205 -98.0442 289.941C-20.9171 420.335 128.916 387.901 194.191 355.385C347.77 278.882 441.809 322.053 523.808 367.029C672.513 454.939 742.548 373.423 758.977 321.676C823.472 118.537 648.358 67.8797 576.605 101.772C503.383 136.359 451.426 131.879 431.374 114.744C352.377 47.2377 236.072 90.0749 187.794 119.932C122.27 154.597 26.782 66.9061 -12.7716 18.7277C-65.5679 -48.6507 -139.409 -76.4098 -169.729 -81.867Z" fill="url(#paint0_linear_2_1060)"/>
<g filter="url(#filter0_d_2_1060)">
<path d="M1012.28 144.643C1212.86 102.114 1343.28 63.3019 1448.28 98.1021V2199C1233.88 2150.84 1040.28 2193 942.281 2205C625.537 2243.79 454.281 2199.01 342.281 2179.53C151.881 2146.43 37.2812 2184.13 -4.71875 2193.53V183.898C79.2812 136.871 138.281 127.702 408.281 154.977C669.397 181.356 708.281 209.101 1012.28 144.643Z" fill="white"/>
</g>
</g>
<defs>
<filter id="filter0_d_2_1060" x="-44.7188" y="14.637" width="1613" height="2295.68" filterUnits="userSpaceOnUse" color-interpolation-filters="sRGB">
<feFlood flood-opacity="0" result="BackgroundImageFix"/>
<feColorMatrix in="SourceAlpha" type="matrix" values="0 0 0 0 0 0 0 0 0 0 0 0 0 0 0 0 0 0 127 0" result="hardAlpha"/>
<feOffset dx="40" dy="10"/>
<feGaussianBlur stdDeviation="40"/>
<feColorMatrix type="matrix" values="0 0 0 0 0.779844 0 0 0 0 0.814654 0 0 0 0 0.904167 0 0 0 1 0"/>
<feBlend mode="normal" in2="BackgroundImageFix" result="effect1_dropShadow_2_1060"/>
<feBlend mode="normal" in="SourceGraphic" in2="effect1_dropShadow_2_1060" result="shape"/>
</filter>
<linearGradient id="paint0_linear_2_1060" x1="666" y1="259" x2="-208.306" y2="-554.235" gradientUnits="userSpaceOnUse">
<stop stop-color="#FFEFE8"/>
<stop offset="0.267793" stop-color="#FEDFFF"/>
<stop offset="0.633244" stop-color="#615EEE" stop-opacity="0.37"/>
<stop offset="0.993208" stop-color="#565CEA" stop-opacity="0.03"/>
</linearGradient>
</defs>
</svg>
