<svg width="1440" height="1254" preserveAspectRatio="none" viewBox="0 0 1440 1254" fill="none" xmlns="http://www.w3.org/2000/svg">
<mask id="mask0_2_1067" style="mask-type:alpha" maskUnits="userSpaceOnUse" x="0" y="0" width="1440" height="1254">
<rect width="1440" height="1254" fill="#D9D9D9"/>
</mask>
<g mask="url(#mask0_2_1067)">
<g filter="url(#filter0_d_2_1067)">
<path d="M1014.03 192.228C1215.2 149.542 1334.98 110.586 1440.29 145.515V3008.98C1225.26 2960.64 1042.11 3002.96 943.82 3015C626.133 3053.93 454.367 3008.99 342.034 2989.44C151.066 2956.21 36.1251 2994.05 -6 3003.49V231.628C78.2502 184.427 137.426 175.224 408.23 202.6C670.124 229.075 709.124 256.924 1014.03 192.228Z" fill="white"/>
</g>
<circle cx="1308" cy="104" r="78" fill="url(#paint0_linear_2_1067)"/>
<g filter="url(#filter1_d_2_1067)">
<circle cx="1308.21" cy="103.388" r="50.1498" fill="white"/>
</g>
<mask id="mask1_2_1067" style="mask-type:alpha" maskUnits="userSpaceOnUse" x="1278" y="73" width="61" height="61">
<rect x="1278.31" y="73.5325" width="60.4672" height="60.4672" fill="#C4C4C4"/>
</mask>
<g mask="url(#mask1_2_1067)">
<path d="M1287.38 82.8734C1287.38 79.2208 1290.34 76.2598 1294 76.2598H1298.81C1299.86 76.2598 1300.7 77.1064 1300.7 78.1508V78.1508C1300.7 79.1952 1301.55 80.0418 1302.59 80.0418H1314.03C1315.08 80.0418 1315.92 79.1952 1315.92 78.1508V78.1508C1315.92 77.1064 1316.77 76.2598 1317.82 76.2598H1322.63C1326.28 76.2598 1329.24 79.2208 1329.24 82.8734V122.595C1329.24 126.248 1326.28 129.209 1322.63 129.209H1294C1290.34 129.209 1287.38 126.248 1287.38 122.595V82.8734Z" fill="#2320D4"/>
<path d="M1297.62 78.79C1297.62 76.478 1299.49 74.6038 1301.8 74.6038H1314.83C1317.14 74.6038 1319.01 76.478 1319.01 78.79V78.79C1319.01 81.1019 1317.14 82.9761 1314.83 82.9761H1301.8C1299.49 82.9761 1297.62 81.1019 1297.62 78.79V78.79Z" fill="#4CE1C6"/>
<path d="M1295.67 94.4728L1297.58 96.3638L1301.38 92.5818" stroke="white" stroke-width="2.64544" stroke-linecap="round" stroke-linejoin="round"/>
<path d="M1308.78 94.4709H1320.19" stroke="white" stroke-width="2.64544" stroke-linecap="round"/>
<path d="M1295.67 102.966L1297.58 104.857L1301.38 101.075" stroke="white" stroke-width="2.64544" stroke-linecap="round" stroke-linejoin="round"/>
<path d="M1308.78 102.964H1320.19" stroke="white" stroke-width="2.64544" stroke-linecap="round"/>
<path d="M1308.78 112.605H1320.19" stroke="white" stroke-width="2.64544" stroke-linecap="round"/>
<path d="M1295.72 110.777L1299.73 114.656" stroke="white" stroke-width="2.64544" stroke-linecap="round"/>
<path d="M1299.73 110.777L1295.72 114.656" stroke="white" stroke-width="2.64544" stroke-linecap="round"/>
</g>
</g>
<defs>
<filter id="filter0_d_2_1067" x="-76.1112" y="91.9364" width="1606.55" height="3058.63" filterUnits="userSpaceOnUse" color-interpolation-filters="sRGB">
<feFlood flood-opacity="0" result="BackgroundImageFix"/>
<feColorMatrix in="SourceAlpha" type="matrix" values="0 0 0 0 0 0 0 0 0 0 0 0 0 0 0 0 0 0 127 0" result="hardAlpha"/>
<feOffset dx="10.0159" dy="40.0636"/>
<feGaussianBlur stdDeviation="40.0636"/>
<feColorMatrix type="matrix" values="0 0 0 0 0.554375 0 0 0 0 0.623387 0 0 0 0 0.803493 0 0 0 1 0"/>
<feBlend mode="normal" in2="BackgroundImageFix" result="effect1_dropShadow_2_1067"/>
<feBlend mode="normal" in="SourceGraphic" in2="effect1_dropShadow_2_1067" result="shape"/>
</filter>
<filter id="filter1_d_2_1067" x="1233.3" y="30.9135" width="149.823" height="149.823" filterUnits="userSpaceOnUse" color-interpolation-filters="sRGB">
<feFlood flood-opacity="0" result="BackgroundImageFix"/>
<feColorMatrix in="SourceAlpha" type="matrix" values="0 0 0 0 0 0 0 0 0 0 0 0 0 0 0 0 0 0 127 0" result="hardAlpha"/>
<feOffset dy="2.43691"/>
<feGaussianBlur stdDeviation="12.381"/>
<feColorMatrix type="matrix" values="0 0 0 0 0.760417 0 0 0 0 0.6875 0 0 0 0 1 0 0 0 1 0"/>
<feBlend mode="normal" in2="BackgroundImageFix" result="effect1_dropShadow_2_1067"/>
<feBlend mode="normal" in="SourceGraphic" in2="effect1_dropShadow_2_1067" result="shape"/>
</filter>
<linearGradient id="paint0_linear_2_1067" x1="1204.6" y1="50.4884" x2="1436.79" y2="141.186" gradientUnits="userSpaceOnUse">
<stop stop-color="white"/>
<stop offset="1" stop-color="white" stop-opacity="0"/>
</linearGradient>
</defs>
</svg>
